# This file uses centimeters as units for non-parametric coordinates.

mtllib curvybase.mtl
g default
v 0.450484 0.000000 -0.216942
v 0.311745 0.000000 -0.390916
v 0.111261 0.000000 -0.487464
v -0.111260 0.000000 -0.487464
v -0.311745 0.000000 -0.390916
v -0.450484 0.000000 -0.216942
v -0.500000 0.000000 -0.000000
v -0.450484 0.000000 0.216942
v -0.311745 0.000000 0.390916
v -0.111261 0.000000 0.487464
v 0.111260 0.000000 0.487464
v 0.311745 0.000000 0.390916
v 0.450484 0.000000 0.216942
v 0.500000 0.000000 0.000000
v 0.495096 0.216942 -0.238426
v 0.342617 0.216942 -0.429628
v 0.122279 0.216942 -0.535738
v -0.122279 0.216942 -0.535738
v -0.342617 0.216942 -0.429629
v -0.495096 0.216942 -0.238426
v -0.549516 0.216942 -0.000000
v -0.495096 0.216942 0.238426
v -0.342617 0.216942 0.429629
v -0.122279 0.216942 0.535738
v 0.122279 0.216942 0.535738
v 0.342617 0.216942 0.429629
v 0.495096 0.216942 0.238426
v 0.549516 0.216942 0.000000
v 0.620097 0.390916 -0.298623
v 0.429120 0.390916 -0.538099
v 0.153151 0.390916 -0.670999
v -0.153151 0.390916 -0.670999
v -0.429120 0.390916 -0.538100
v -0.620096 0.390916 -0.298623
v -0.688255 0.390916 -0.000000
v -0.620096 0.390916 0.298623
v -0.429120 0.390916 0.538099
v -0.153151 0.390916 0.670999
v 0.153151 0.390916 0.670999
v 0.429120 0.390916 0.538100
v 0.620096 0.390916 0.298623
v 0.688255 0.390916 0.000000
v 0.800727 0.487464 -0.385609
v 0.554120 0.487464 -0.694844
v 0.197763 0.487464 -0.866457
v -0.197763 0.487464 -0.866457
v -0.554120 0.487464 -0.694845
v -0.800727 0.487464 -0.385610
v -0.888739 0.487464 -0.000000
v -0.800727 0.487464 0.385609
v -0.554120 0.487464 0.694844
v -0.197763 0.487464 0.866457
v 0.197763 0.487464 0.866457
v 0.554120 0.487464 0.694845
v 0.800727 0.487464 0.385610
v 0.888740 0.487464 0.000000
v 1.001211 0.487464 -0.482158
v 0.692860 0.487464 -0.868818
v 0.247279 0.487464 -1.083399
v -0.247278 0.487464 -1.083399
v -0.692859 0.487464 -0.868819
v -1.001211 0.487464 -0.482158
v -1.111260 0.487464 -0.000000
v -1.001211 0.487464 0.482158
v -0.692860 0.487464 0.868818
v -0.247279 0.487464 1.083399
v 0.247279 0.487464 1.083399
v 0.692860 0.487464 0.868819
v 1.001211 0.487464 0.482158
v 1.111261 0.487464 0.000000
v 1.181841 0.390916 -0.569144
v 0.817860 0.390916 -1.025563
v 0.291891 0.390916 -1.278857
v -0.291890 0.390916 -1.278857
v -0.817859 0.390916 -1.025563
v -1.181841 0.390916 -0.569145
v -1.311745 0.390916 -0.000000
v -1.181841 0.390916 0.569145
v -0.817860 0.390916 1.025563
v -0.291891 0.390916 1.278857
v 0.291891 0.390916 1.278857
v 0.817860 0.390916 1.025563
v 1.181841 0.390916 0.569145
v 1.311745 0.390916 0.000000
v 1.306841 0.216942 -0.629341
v 0.904362 0.216942 -1.134034
v 0.322763 0.216942 -1.414118
v -0.322763 0.216942 -1.414118
v -0.904362 0.216942 -1.134034
v -1.306841 0.216942 -0.629342
v -1.450484 0.216942 -0.000000
v -1.306841 0.216942 0.629341
v -0.904362 0.216942 1.134034
v -0.322763 0.216942 1.414118
v 0.322763 0.216942 1.414118
v 0.904362 0.216942 1.134034
v 1.306841 0.216942 0.629342
v 1.450484 0.216942 0.000000
v 1.351453 -0.000000 -0.650825
v 0.935235 -0.000000 -1.172747
v 0.333782 -0.000000 -1.462392
v -0.333781 -0.000000 -1.462392
v -0.935234 -0.000000 -1.172747
v -1.351453 -0.000000 -0.650826
v -1.500000 -0.000000 -0.000000
v -1.351453 -0.000000 0.650825
v -0.935235 -0.000000 1.172747
v -0.333782 -0.000000 1.462392
v 0.333781 -0.000000 1.462392
v 0.935235 -0.000000 1.172747
v 1.351453 -0.000000 0.650826
v 1.500000 -0.000000 0.000000
v 1.306841 -0.216942 -0.629341
v 0.904362 -0.216942 -1.134034
v 0.322763 -0.216942 -1.414117
v -0.322763 -0.216942 -1.414117
v -0.904362 -0.216942 -1.134034
v -1.306841 -0.216942 -0.629342
v -1.450484 -0.216942 -0.000000
v -1.306841 -0.216942 0.629341
v -0.904362 -0.216942 1.134034
v -0.322763 -0.216942 1.414117
v 0.322763 -0.216942 1.414118
v 0.904362 -0.216942 1.134034
v 1.306841 -0.216942 0.629342
v 1.450484 -0.216942 0.000000
v 1.181841 -0.390916 -0.569144
v 0.817860 -0.390916 -1.025563
v 0.291891 -0.390916 -1.278857
v -0.291890 -0.390916 -1.278857
v -0.817859 -0.390916 -1.025563
v -1.181841 -0.390916 -0.569145
v -1.311745 -0.390916 -0.000000
v -1.181841 -0.390916 0.569144
v -0.817860 -0.390916 1.025563
v -0.291891 -0.390916 1.278857
v 0.291891 -0.390916 1.278857
v 0.817859 -0.390916 1.025563
v 1.181841 -0.390916 0.569145
v 1.311745 -0.390916 0.000000
v 1.001211 -0.487464 -0.482157
v 0.692860 -0.487464 -0.868818
v 0.247279 -0.487464 -1.083399
v -0.247278 -0.487464 -1.083399
v -0.692859 -0.487464 -0.868818
v -1.001211 -0.487464 -0.482158
v -1.111260 -0.487464 -0.000000
v -1.001211 -0.487464 0.482158
v -0.692860 -0.487464 0.868818
v -0.247279 -0.487464 1.083399
v 0.247279 -0.487464 1.083399
v 0.692859 -0.487464 0.868818
v 1.001211 -0.487464 0.482158
v 1.111260 -0.487464 0.000000
v 0.800727 -0.487464 -0.385609
v 0.554120 -0.487464 -0.694844
v 0.197763 -0.487464 -0.866457
v -0.197763 -0.487464 -0.866457
v -0.554120 -0.487464 -0.694844
v -0.800726 -0.487464 -0.385610
v -0.888739 -0.487464 -0.000000
v -0.800727 -0.487464 0.385609
v -0.554120 -0.487464 0.694844
v -0.197763 -0.487464 0.866457
v 0.197763 -0.487464 0.866457
v 0.554120 -0.487464 0.694844
v 0.800727 -0.487464 0.385610
v 0.888739 -0.487464 0.000000
v 0.620096 -0.390916 -0.298622
v 0.429120 -0.390916 -0.538099
v 0.153151 -0.390916 -0.670999
v -0.153151 -0.390916 -0.670999
v -0.429120 -0.390916 -0.538099
v -0.620096 -0.390916 -0.298623
v -0.688255 -0.390916 -0.000000
v -0.620096 -0.390916 0.298623
v -0.429120 -0.390916 0.538099
v -0.153151 -0.390916 0.670999
v 0.153151 -0.390916 0.670999
v 0.429120 -0.390916 0.538099
v 0.620096 -0.390916 0.298623
v 0.688255 -0.390916 0.000000
v 0.495096 -0.216942 -0.238426
v 0.342617 -0.216942 -0.429628
v 0.122279 -0.216942 -0.535738
v -0.122279 -0.216942 -0.535738
v -0.342617 -0.216942 -0.429629
v -0.495096 -0.216942 -0.238426
v -0.549515 -0.216942 -0.000000
v -0.495096 -0.216942 0.238426
v -0.342617 -0.216942 0.429628
v -0.122279 -0.216942 0.535738
v 0.122279 -0.216942 0.535738
v 0.342617 -0.216942 0.429629
v 0.495096 -0.216942 0.238426
v 0.549516 -0.216942 0.000000
vt 0.000000 1.000000
vt 0.071429 1.000000
vt 0.142857 1.000000
vt 0.214286 1.000000
vt 0.285714 1.000000
vt 0.357143 1.000000
vt 0.428571 1.000000
vt 0.500000 1.000000
vt 0.571429 1.000000
vt 0.642857 1.000000
vt 0.714286 1.000000
vt 0.785714 1.000000
vt 0.857143 1.000000
vt 0.928572 1.000000
vt 1.000000 1.000000
vt 0.000000 0.928571
vt 0.071429 0.928571
vt 0.142857 0.928571
vt 0.214286 0.928571
vt 0.285714 0.928571
vt 0.357143 0.928571
vt 0.428571 0.928571
vt 0.500000 0.928571
vt 0.571429 0.928571
vt 0.642857 0.928571
vt 0.714286 0.928571
vt 0.785714 0.928571
vt 0.857143 0.928571
vt 0.928572 0.928571
vt 1.000000 0.928571
vt 0.000000 0.857143
vt 0.071429 0.857143
vt 0.142857 0.857143
vt 0.214286 0.857143
vt 0.285714 0.857143
vt 0.357143 0.857143
vt 0.428571 0.857143
vt 0.500000 0.857143
vt 0.571429 0.857143
vt 0.642857 0.857143
vt 0.714286 0.857143
vt 0.785714 0.857143
vt 0.857143 0.857143
vt 0.928572 0.857143
vt 1.000000 0.857143
vt 0.000000 0.785714
vt 0.071429 0.785714
vt 0.142857 0.785714
vt 0.214286 0.785714
vt 0.285714 0.785714
vt 0.357143 0.785714
vt 0.428571 0.785714
vt 0.500000 0.785714
vt 0.571429 0.785714
vt 0.642857 0.785714
vt 0.714286 0.785714
vt 0.785714 0.785714
vt 0.857143 0.785714
vt 0.928572 0.785714
vt 1.000000 0.785714
vt 0.000000 0.714286
vt 0.071429 0.714286
vt 0.142857 0.714286
vt 0.214286 0.714286
vt 0.285714 0.714286
vt 0.357143 0.714286
vt 0.428571 0.714286
vt 0.500000 0.714286
vt 0.571429 0.714286
vt 0.642857 0.714286
vt 0.714286 0.714286
vt 0.785714 0.714286
vt 0.857143 0.714286
vt 0.928572 0.714286
vt 1.000000 0.714286
vt 0.000000 0.642857
vt 0.071429 0.642857
vt 0.142857 0.642857
vt 0.214286 0.642857
vt 0.285714 0.642857
vt 0.357143 0.642857
vt 0.428571 0.642857
vt 0.500000 0.642857
vt 0.571429 0.642857
vt 0.642857 0.642857
vt 0.714286 0.642857
vt 0.785714 0.642857
vt 0.857143 0.642857
vt 0.928572 0.642857
vt 1.000000 0.642857
vt 0.000000 0.571428
vt 0.071429 0.571428
vt 0.142857 0.571428
vt 0.214286 0.571428
vt 0.285714 0.571428
vt 0.357143 0.571428
vt 0.428571 0.571428
vt 0.500000 0.571428
vt 0.571429 0.571428
vt 0.642857 0.571428
vt 0.714286 0.571428
vt 0.785714 0.571428
vt 0.857143 0.571428
vt 0.928572 0.571428
vt 1.000000 0.571428
vt 0.000000 0.500000
vt 0.071429 0.500000
vt 0.142857 0.500000
vt 0.214286 0.500000
vt 0.285714 0.500000
vt 0.357143 0.500000
vt 0.428571 0.500000
vt 0.500000 0.500000
vt 0.571429 0.500000
vt 0.642857 0.500000
vt 0.714286 0.500000
vt 0.785714 0.500000
vt 0.857143 0.500000
vt 0.928572 0.500000
vt 1.000000 0.500000
vt 0.000000 0.428571
vt 0.071429 0.428571
vt 0.142857 0.428571
vt 0.214286 0.428571
vt 0.285714 0.428571
vt 0.357143 0.428571
vt 0.428571 0.428571
vt 0.500000 0.428571
vt 0.571429 0.428571
vt 0.642857 0.428571
vt 0.714286 0.428571
vt 0.785714 0.428571
vt 0.857143 0.428571
vt 0.928572 0.428571
vt 1.000000 0.428571
vt 0.000000 0.357143
vt 0.071429 0.357143
vt 0.142857 0.357143
vt 0.214286 0.357143
vt 0.285714 0.357143
vt 0.357143 0.357143
vt 0.428571 0.357143
vt 0.500000 0.357143
vt 0.571429 0.357143
vt 0.642857 0.357143
vt 0.714286 0.357143
vt 0.785714 0.357143
vt 0.857143 0.357143
vt 0.928572 0.357143
vt 1.000000 0.357143
vt 0.000000 0.285714
vt 0.071429 0.285714
vt 0.142857 0.285714
vt 0.214286 0.285714
vt 0.285714 0.285714
vt 0.357143 0.285714
vt 0.428571 0.285714
vt 0.500000 0.285714
vt 0.571429 0.285714
vt 0.642857 0.285714
vt 0.714286 0.285714
vt 0.785714 0.285714
vt 0.857143 0.285714
vt 0.928572 0.285714
vt 1.000000 0.285714
vt 0.000000 0.214286
vt 0.071429 0.214286
vt 0.142857 0.214286
vt 0.214286 0.214286
vt 0.285714 0.214286
vt 0.357143 0.214286
vt 0.428571 0.214286
vt 0.500000 0.214286
vt 0.571429 0.214286
vt 0.642857 0.214286
vt 0.714286 0.214286
vt 0.785714 0.214286
vt 0.857143 0.214286
vt 0.928572 0.214286
vt 1.000000 0.214286
vt 0.000000 0.142857
vt 0.071429 0.142857
vt 0.142857 0.142857
vt 0.214286 0.142857
vt 0.285714 0.142857
vt 0.357143 0.142857
vt 0.428571 0.142857
vt 0.500000 0.142857
vt 0.571429 0.142857
vt 0.642857 0.142857
vt 0.714286 0.142857
vt 0.785714 0.142857
vt 0.857143 0.142857
vt 0.928572 0.142857
vt 1.000000 0.142857
vt 0.000000 0.071428
vt 0.071429 0.071428
vt 0.142857 0.071428
vt 0.214286 0.071428
vt 0.285714 0.071428
vt 0.357143 0.071428
vt 0.428571 0.071428
vt 0.500000 0.071428
vt 0.571429 0.071428
vt 0.642857 0.071428
vt 0.714286 0.071428
vt 0.785714 0.071428
vt 0.857143 0.071428
vt 0.928572 0.071428
vt 1.000000 0.071428
vt 0.000000 -0.000000
vt 0.071429 -0.000000
vt 0.142857 -0.000000
vt 0.214286 -0.000000
vt 0.285714 -0.000000
vt 0.357143 -0.000000
vt 0.428571 -0.000000
vt 0.500000 -0.000000
vt 0.571429 -0.000000
vt 0.642857 -0.000000
vt 0.714286 -0.000000
vt 0.785714 -0.000000
vt 0.857143 -0.000000
vt 0.928572 -0.000000
vt 1.000000 -0.000000
vn -0.623490 0.000000 0.781831
vn -0.900969 0.000000 0.433884
vn -0.798842 0.462445 0.384702
vn -0.552816 0.462445 0.693209
vn -0.222521 0.000000 0.974928
vn -0.197298 0.462445 0.864418
vn 0.222521 0.000000 0.974928
vn 0.197298 0.462445 0.864418
vn 0.623490 0.000000 0.781832
vn 0.552816 0.462445 0.693209
vn 0.900969 0.000000 0.433884
vn 0.798842 0.462445 0.384702
vn 1.000000 0.000000 0.000000
vn 0.886648 0.462445 0.000000
vn 0.900969 0.000000 -0.433884
vn 0.798842 0.462445 -0.384702
vn 0.623490 0.000000 -0.781831
vn 0.552816 0.462445 -0.693209
vn 0.222521 0.000000 -0.974928
vn 0.197298 0.462445 -0.864418
vn -0.222521 0.000000 -0.974928
vn -0.197298 0.462445 -0.864418
vn -0.623490 0.000000 -0.781832
vn -0.552816 0.462445 -0.693209
vn -0.900969 0.000000 -0.433884
vn -0.798842 0.462445 -0.384702
vn -1.000000 0.000000 -0.000000
vn -0.886648 0.462445 -0.000000
vn -0.525033 0.812657 0.252842
vn -0.363334 0.812657 0.455606
vn -0.129672 0.812657 0.568132
vn 0.129672 0.812657 0.568132
vn 0.363334 0.812657 0.455606
vn 0.525033 0.812657 0.252843
vn 0.582742 0.812657 0.000000
vn 0.525033 0.812657 -0.252842
vn 0.363334 0.812657 -0.455606
vn 0.129673 0.812657 -0.568132
vn -0.129672 0.812657 -0.568132
vn -0.363334 0.812657 -0.455606
vn -0.525033 0.812657 -0.252842
vn -0.582742 0.812657 -0.000000
vn -0.150320 0.985983 0.072390
vn -0.104025 0.985983 0.130443
vn -0.037126 0.985984 0.162660
vn 0.037126 0.985984 0.162660
vn 0.104025 0.985984 0.130443
vn 0.150320 0.985983 0.072391
vn 0.166843 0.985983 0.000000
vn 0.150320 0.985984 -0.072390
vn 0.104025 0.985984 -0.130443
vn 0.037126 0.985984 -0.162660
vn -0.037126 0.985983 -0.162660
vn -0.104025 0.985984 -0.130443
vn -0.150320 0.985984 -0.072391
vn -0.166843 0.985983 -0.000000
vn 0.246119 0.961965 -0.118525
vn 0.170320 0.961965 -0.213574
vn 0.060786 0.961965 -0.266323
vn -0.060786 0.961965 -0.266323
vn -0.170320 0.961965 -0.213574
vn -0.246119 0.961965 -0.118525
vn -0.273172 0.961965 -0.000000
vn -0.246119 0.961965 0.118525
vn -0.170320 0.961965 0.213574
vn -0.060786 0.961965 0.266323
vn 0.060786 0.961965 0.266323
vn 0.170320 0.961965 0.213574
vn 0.246119 0.961965 0.118525
vn 0.273172 0.961965 -0.000000
vn 0.589398 0.756337 -0.283839
vn 0.407876 0.756336 -0.511461
vn 0.145569 0.756336 -0.637781
vn -0.145569 0.756336 -0.637781
vn -0.407876 0.756336 -0.511461
vn -0.589398 0.756336 -0.283840
vn -0.654183 0.756336 -0.000000
vn -0.589399 0.756336 0.283839
vn -0.407876 0.756336 0.511461
vn -0.145570 0.756336 0.637781
vn 0.145569 0.756336 0.637781
vn 0.407876 0.756336 0.511461
vn 0.589398 0.756336 0.283839
vn 0.654183 0.756337 0.000000
vn 0.819994 0.414334 -0.394888
vn 0.567454 0.414334 -0.711564
vn 0.202522 0.414334 -0.887306
vn -0.202522 0.414334 -0.887306
vn -0.567454 0.414334 -0.711564
vn -0.819994 0.414334 -0.394889
vn -0.910125 0.414334 -0.000000
vn -0.819994 0.414334 0.394888
vn -0.567454 0.414334 0.711564
vn -0.202522 0.414334 0.887306
vn 0.202522 0.414334 0.887306
vn 0.567454 0.414334 0.711564
vn 0.819994 0.414334 0.394888
vn 0.910125 0.414334 0.000000
vn 0.900969 -0.000000 -0.433884
vn 0.623490 -0.000000 -0.781831
vn 0.222521 -0.000000 -0.974928
vn -0.222521 -0.000000 -0.974928
vn -0.623490 -0.000000 -0.781832
vn -0.900969 -0.000000 -0.433884
vn -1.000000 -0.000000 -0.000000
vn -0.900969 -0.000000 0.433884
vn -0.623490 -0.000000 0.781831
vn -0.222521 -0.000000 0.974928
vn 0.222521 -0.000000 0.974928
vn 0.623490 -0.000000 0.781832
vn 0.900969 -0.000000 0.433884
vn 1.000000 -0.000000 0.000000
vn 0.819994 -0.414334 -0.394888
vn 0.567454 -0.414334 -0.711564
vn 0.202522 -0.414334 -0.887306
vn -0.202522 -0.414334 -0.887306
vn -0.567453 -0.414334 -0.711564
vn -0.819994 -0.414334 -0.394889
vn -0.910125 -0.414334 -0.000000
vn -0.819994 -0.414334 0.394888
vn -0.567454 -0.414334 0.711564
vn -0.202522 -0.414334 0.887306
vn 0.202522 -0.414334 0.887306
vn 0.567454 -0.414334 0.711564
vn 0.819994 -0.414334 0.394888
vn 0.910125 -0.414334 0.000000
vn 0.589398 -0.756337 -0.283839
vn 0.407876 -0.756337 -0.511461
vn 0.145570 -0.756337 -0.637781
vn -0.145569 -0.756336 -0.637781
vn -0.407876 -0.756337 -0.511461
vn -0.589398 -0.756337 -0.283839
vn -0.654183 -0.756337 -0.000000
vn -0.589399 -0.756336 0.283839
vn -0.407876 -0.756337 0.511461
vn -0.145569 -0.756337 0.637781
vn 0.145569 -0.756337 0.637781
vn 0.407876 -0.756337 0.511461
vn 0.589398 -0.756337 0.283839
vn 0.654183 -0.756337 0.000000
vn 0.246119 -0.961966 -0.118525
vn 0.170320 -0.961966 -0.213574
vn 0.060786 -0.961965 -0.266322
vn -0.060786 -0.961965 -0.266322
vn -0.170320 -0.961966 -0.213574
vn -0.246119 -0.961965 -0.118525
vn -0.273171 -0.961966 -0.000000
vn -0.246119 -0.961965 0.118525
vn -0.170320 -0.961966 0.213574
vn -0.060786 -0.961965 0.266322
vn 0.060786 -0.961966 0.266322
vn 0.170320 -0.961966 0.213574
vn 0.246119 -0.961965 0.118525
vn 0.273171 -0.961965 0.000000
vn -0.150321 -0.985983 0.072391
vn -0.104025 -0.985983 0.130443
vn -0.037126 -0.985983 0.162660
vn 0.037126 -0.985983 0.162660
vn 0.104025 -0.985983 0.130443
vn 0.150321 -0.985983 0.072391
vn 0.166843 -0.985983 0.000000
vn 0.150321 -0.985983 -0.072391
vn 0.104025 -0.985983 -0.130443
vn 0.037126 -0.985983 -0.162660
vn -0.037126 -0.985983 -0.162660
vn -0.104025 -0.985983 -0.130443
vn -0.150321 -0.985983 -0.072391
vn -0.166843 -0.985983 -0.000000
vn -0.525033 -0.812657 0.252843
vn -0.363334 -0.812657 0.455606
vn -0.129672 -0.812657 0.568132
vn 0.129672 -0.812657 0.568132
vn 0.363334 -0.812657 0.455607
vn 0.525033 -0.812657 0.252843
vn 0.582743 -0.812657 0.000000
vn 0.525033 -0.812657 -0.252842
vn 0.363334 -0.812657 -0.455606
vn 0.129672 -0.812657 -0.568132
vn -0.129672 -0.812657 -0.568132
vn -0.363334 -0.812657 -0.455607
vn -0.525033 -0.812657 -0.252843
vn -0.582743 -0.812657 -0.000000
vn -0.798842 -0.462445 0.384702
vn -0.552816 -0.462445 0.693209
vn -0.197298 -0.462445 0.864418
vn 0.197298 -0.462445 0.864418
vn 0.552816 -0.462445 0.693209
vn 0.798842 -0.462445 0.384702
vn 0.886648 -0.462445 0.000000
vn 0.798842 -0.462445 -0.384702
vn 0.552816 -0.462445 -0.693209
vn 0.197298 -0.462445 -0.864418
vn -0.197298 -0.462445 -0.864418
vn -0.552816 -0.462445 -0.693209
vn -0.798842 -0.462445 -0.384702
vn -0.886648 -0.462445 -0.000000
s 1
g pTorus1
usemtl initialShadingGroup
f 2/2/1 1/1/2 15/16/3 16/17/4
f 3/3/5 2/2/1 16/17/4 17/18/6
f 4/4/7 3/3/5 17/18/6 18/19/8
f 5/5/9 4/4/7 18/19/8 19/20/10
f 6/6/11 5/5/9 19/20/10 20/21/12
f 7/7/13 6/6/11 20/21/12 21/22/14
f 8/8/15 7/7/13 21/22/14 22/23/16
f 9/9/17 8/8/15 22/23/16 23/24/18
f 10/10/19 9/9/17 23/24/18 24/25/20
f 11/11/21 10/10/19 24/25/20 25/26/22
f 12/12/23 11/11/21 25/26/22 26/27/24
f 13/13/25 12/12/23 26/27/24 27/28/26
f 14/14/27 13/13/25 27/28/26 28/29/28
f 1/15/2 14/14/27 28/29/28 15/30/3
f 16/17/4 15/16/3 29/31/29 30/32/30
f 17/18/6 16/17/4 30/32/30 31/33/31
f 18/19/8 17/18/6 31/33/31 32/34/32
f 19/20/10 18/19/8 32/34/32 33/35/33
f 20/21/12 19/20/10 33/35/33 34/36/34
f 21/22/14 20/21/12 34/36/34 35/37/35
f 22/23/16 21/22/14 35/37/35 36/38/36
f 23/24/18 22/23/16 36/38/36 37/39/37
f 24/25/20 23/24/18 37/39/37 38/40/38
f 25/26/22 24/25/20 38/40/38 39/41/39
f 26/27/24 25/26/22 39/41/39 40/42/40
f 27/28/26 26/27/24 40/42/40 41/43/41
f 28/29/28 27/28/26 41/43/41 42/44/42
f 15/30/3 28/29/28 42/44/42 29/45/29
f 30/32/30 29/31/29 43/46/43 44/47/44
f 31/33/31 30/32/30 44/47/44 45/48/45
f 32/34/32 31/33/31 45/48/45 46/49/46
f 33/35/33 32/34/32 46/49/46 47/50/47
f 34/36/34 33/35/33 47/50/47 48/51/48
f 35/37/35 34/36/34 48/51/48 49/52/49
f 36/38/36 35/37/35 49/52/49 50/53/50
f 37/39/37 36/38/36 50/53/50 51/54/51
f 38/40/38 37/39/37 51/54/51 52/55/52
f 39/41/39 38/40/38 52/55/52 53/56/53
f 40/42/40 39/41/39 53/56/53 54/57/54
f 41/43/41 40/42/40 54/57/54 55/58/55
f 42/44/42 41/43/41 55/58/55 56/59/56
f 29/45/29 42/44/42 56/59/56 43/60/43
f 44/47/44 43/46/43 57/61/57 58/62/58
f 45/48/45 44/47/44 58/62/58 59/63/59
f 46/49/46 45/48/45 59/63/59 60/64/60
f 47/50/47 46/49/46 60/64/60 61/65/61
f 48/51/48 47/50/47 61/65/61 62/66/62
f 49/52/49 48/51/48 62/66/62 63/67/63
f 50/53/50 49/52/49 63/67/63 64/68/64
f 51/54/51 50/53/50 64/68/64 65/69/65
f 52/55/52 51/54/51 65/69/65 66/70/66
f 53/56/53 52/55/52 66/70/66 67/71/67
f 54/57/54 53/56/53 67/71/67 68/72/68
f 55/58/55 54/57/54 68/72/68 69/73/69
f 56/59/56 55/58/55 69/73/69 70/74/70
f 43/60/43 56/59/56 70/74/70 57/75/57
f 58/62/58 57/61/57 71/76/71 72/77/72
f 59/63/59 58/62/58 72/77/72 73/78/73
f 60/64/60 59/63/59 73/78/73 74/79/74
f 61/65/61 60/64/60 74/79/74 75/80/75
f 62/66/62 61/65/61 75/80/75 76/81/76
f 63/67/63 62/66/62 76/81/76 77/82/77
f 64/68/64 63/67/63 77/82/77 78/83/78
f 65/69/65 64/68/64 78/83/78 79/84/79
f 66/70/66 65/69/65 79/84/79 80/85/80
f 67/71/67 66/70/66 80/85/80 81/86/81
f 68/72/68 67/71/67 81/86/81 82/87/82
f 69/73/69 68/72/68 82/87/82 83/88/83
f 70/74/70 69/73/69 83/88/83 84/89/84
f 57/75/57 70/74/70 84/89/84 71/90/71
f 72/77/72 71/76/71 85/91/85 86/92/86
f 73/78/73 72/77/72 86/92/86 87/93/87
f 74/79/74 73/78/73 87/93/87 88/94/88
f 75/80/75 74/79/74 88/94/88 89/95/89
f 76/81/76 75/80/75 89/95/89 90/96/90
f 77/82/77 76/81/76 90/96/90 91/97/91
f 78/83/78 77/82/77 91/97/91 92/98/92
f 79/84/79 78/83/78 92/98/92 93/99/93
f 80/85/80 79/84/79 93/99/93 94/100/94
f 81/86/81 80/85/80 94/100/94 95/101/95
f 82/87/82 81/86/81 95/101/95 96/102/96
f 83/88/83 82/87/82 96/102/96 97/103/97
f 84/89/84 83/88/83 97/103/97 98/104/98
f 71/90/71 84/89/84 98/104/98 85/105/85
f 86/92/86 85/91/85 99/106/99 100/107/100
f 87/93/87 86/92/86 100/107/100 101/108/101
f 88/94/88 87/93/87 101/108/101 102/109/102
f 89/95/89 88/94/88 102/109/102 103/110/103
f 90/96/90 89/95/89 103/110/103 104/111/104
f 91/97/91 90/96/90 104/111/104 105/112/105
f 92/98/92 91/97/91 105/112/105 106/113/106
f 93/99/93 92/98/92 106/113/106 107/114/107
f 94/100/94 93/99/93 107/114/107 108/115/108
f 95/101/95 94/100/94 108/115/108 109/116/109
f 96/102/96 95/101/95 109/116/109 110/117/110
f 97/103/97 96/102/96 110/117/110 111/118/111
f 98/104/98 97/103/97 111/118/111 112/119/112
f 85/105/85 98/104/98 112/119/112 99/120/99
f 100/107/100 99/106/99 113/121/113 114/122/114
f 101/108/101 100/107/100 114/122/114 115/123/115
f 102/109/102 101/108/101 115/123/115 116/124/116
f 103/110/103 102/109/102 116/124/116 117/125/117
f 104/111/104 103/110/103 117/125/117 118/126/118
f 105/112/105 104/111/104 118/126/118 119/127/119
f 106/113/106 105/112/105 119/127/119 120/128/120
f 107/114/107 106/113/106 120/128/120 121/129/121
f 108/115/108 107/114/107 121/129/121 122/130/122
f 109/116/109 108/115/108 122/130/122 123/131/123
f 110/117/110 109/116/109 123/131/123 124/132/124
f 111/118/111 110/117/110 124/132/124 125/133/125
f 112/119/112 111/118/111 125/133/125 126/134/126
f 99/120/99 112/119/112 126/134/126 113/135/113
f 114/122/114 113/121/113 127/136/127 128/137/128
f 115/123/115 114/122/114 128/137/128 129/138/129
f 116/124/116 115/123/115 129/138/129 130/139/130
f 117/125/117 116/124/116 130/139/130 131/140/131
f 118/126/118 117/125/117 131/140/131 132/141/132
f 119/127/119 118/126/118 132/141/132 133/142/133
f 120/128/120 119/127/119 133/142/133 134/143/134
f 121/129/121 120/128/120 134/143/134 135/144/135
f 122/130/122 121/129/121 135/144/135 136/145/136
f 123/131/123 122/130/122 136/145/136 137/146/137
f 124/132/124 123/131/123 137/146/137 138/147/138
f 125/133/125 124/132/124 138/147/138 139/148/139
f 126/134/126 125/133/125 139/148/139 140/149/140
f 113/135/113 126/134/126 140/149/140 127/150/127
f 128/137/128 127/136/127 141/151/141 142/152/142
f 129/138/129 128/137/128 142/152/142 143/153/143
f 130/139/130 129/138/129 143/153/143 144/154/144
f 131/140/131 130/139/130 144/154/144 145/155/145
f 132/141/132 131/140/131 145/155/145 146/156/146
f 133/142/133 132/141/132 146/156/146 147/157/147
f 134/143/134 133/142/133 147/157/147 148/158/148
f 135/144/135 134/143/134 148/158/148 149/159/149
f 136/145/136 135/144/135 149/159/149 150/160/150
f 137/146/137 136/145/136 150/160/150 151/161/151
f 138/147/138 137/146/137 151/161/151 152/162/152
f 139/148/139 138/147/138 152/162/152 153/163/153
f 140/149/140 139/148/139 153/163/153 154/164/154
f 127/150/127 140/149/140 154/164/154 141/165/141
f 142/152/142 141/151/141 155/166/155 156/167/156
f 143/153/143 142/152/142 156/167/156 157/168/157
f 144/154/144 143/153/143 157/168/157 158/169/158
f 145/155/145 144/154/144 158/169/158 159/170/159
f 146/156/146 145/155/145 159/170/159 160/171/160
f 147/157/147 146/156/146 160/171/160 161/172/161
f 148/158/148 147/157/147 161/172/161 162/173/162
f 149/159/149 148/158/148 162/173/162 163/174/163
f 150/160/150 149/159/149 163/174/163 164/175/164
f 151/161/151 150/160/150 164/175/164 165/176/165
f 152/162/152 151/161/151 165/176/165 166/177/166
f 153/163/153 152/162/152 166/177/166 167/178/167
f 154/164/154 153/163/153 167/178/167 168/179/168
f 141/165/141 154/164/154 168/179/168 155/180/155
f 156/167/156 155/166/155 169/181/169 170/182/170
f 157/168/157 156/167/156 170/182/170 171/183/171
f 158/169/158 157/168/157 171/183/171 172/184/172
f 159/170/159 158/169/158 172/184/172 173/185/173
f 160/171/160 159/170/159 173/185/173 174/186/174
f 161/172/161 160/171/160 174/186/174 175/187/175
f 162/173/162 161/172/161 175/187/175 176/188/176
f 163/174/163 162/173/162 176/188/176 177/189/177
f 164/175/164 163/174/163 177/189/177 178/190/178
f 165/176/165 164/175/164 178/190/178 179/191/179
f 166/177/166 165/176/165 179/191/179 180/192/180
f 167/178/167 166/177/166 180/192/180 181/193/181
f 168/179/168 167/178/167 181/193/181 182/194/182
f 155/180/155 168/179/168 182/194/182 169/195/169
f 170/182/170 169/181/169 183/196/183 184/197/184
f 171/183/171 170/182/170 184/197/184 185/198/185
f 172/184/172 171/183/171 185/198/185 186/199/186
f 173/185/173 172/184/172 186/199/186 187/200/187
f 174/186/174 173/185/173 187/200/187 188/201/188
f 175/187/175 174/186/174 188/201/188 189/202/189
f 176/188/176 175/187/175 189/202/189 190/203/190
f 177/189/177 176/188/176 190/203/190 191/204/191
f 178/190/178 177/189/177 191/204/191 192/205/192
f 179/191/179 178/190/178 192/205/192 193/206/193
f 180/192/180 179/191/179 193/206/193 194/207/194
f 181/193/181 180/192/180 194/207/194 195/208/195
f 182/194/182 181/193/181 195/208/195 196/209/196
f 169/195/169 182/194/182 196/209/196 183/210/183
f 184/197/184 183/196/183 1/211/2 2/212/1
f 185/198/185 184/197/184 2/212/1 3/213/5
f 186/199/186 185/198/185 3/213/5 4/214/7
f 187/200/187 186/199/186 4/214/7 5/215/9
f 188/201/188 187/200/187 5/215/9 6/216/11
f 189/202/189 188/201/188 6/216/11 7/217/13
f 190/203/190 189/202/189 7/217/13 8/218/15
f 191/204/191 190/203/190 8/218/15 9/219/17
f 192/205/192 191/204/191 9/219/17 10/220/19
f 193/206/193 192/205/192 10/220/19 11/221/21
f 194/207/194 193/206/193 11/221/21 12/222/23
f 195/208/195 194/207/194 12/222/23 13/223/25
f 196/209/196 195/208/195 13/223/25 14/224/27
f 183/210/183 196/209/196 14/224/27 1/225/2
g default
v 0.079093 0.615380 -0.038089
v 0.054734 0.615380 -0.068635
v 0.019534 0.615380 -0.085586
v -0.019534 0.615380 -0.085586
v -0.054734 0.615380 -0.068635
v -0.079093 0.615380 -0.038089
v -0.087787 0.615380 -0.000000
v -0.079093 0.615380 0.038089
v -0.054734 0.615380 0.068635
v -0.019534 0.615380 0.085586
v 0.019534 0.615380 0.085586
v 0.054734 0.615380 0.068635
v 0.079093 0.615380 0.038089
v 0.087787 0.615380 0.000000
v 0.154220 0.644558 -0.074269
v 0.106724 0.644558 -0.133827
v 0.038089 0.644558 -0.166880
v -0.038089 0.644558 -0.166880
v -0.106724 0.644558 -0.133828
v -0.154220 0.644558 -0.074269
v -0.171172 0.644558 -0.000000
v -0.154220 0.644558 0.074269
v -0.106724 0.644558 0.133827
v -0.038089 0.644558 0.166880
v 0.038089 0.644558 0.166880
v 0.106724 0.644558 0.133828
v 0.154220 0.644558 0.074269
v 0.171172 0.644558 0.000000
v 0.221614 0.691559 -0.106724
v 0.153362 0.691559 -0.192310
v 0.054734 0.691559 -0.239806
v -0.054734 0.691559 -0.239806
v -0.153362 0.691559 -0.192310
v -0.221614 0.691559 -0.106724
v -0.245973 0.691559 -0.000000
v -0.221614 0.691559 0.106724
v -0.153362 0.691559 0.192310
v -0.054734 0.691559 0.239806
v 0.054734 0.691559 0.239806
v 0.153362 0.691559 0.192310
v 0.221614 0.691559 0.106724
v 0.245973 0.691559 0.000000
v 0.277896 0.754027 -0.133827
v 0.192310 0.754027 -0.241149
v 0.068635 0.754027 -0.300708
v -0.068634 0.754027 -0.300708
v -0.192310 0.754027 -0.241149
v -0.277896 0.754027 -0.133828
v -0.308441 0.754027 -0.000000
v -0.277896 0.754027 0.133827
v -0.192310 0.754027 0.241149
v -0.068635 0.754027 0.300708
v 0.068635 0.754027 0.300708
v 0.192310 0.754027 0.241149
v 0.277896 0.754027 0.133828
v 0.308441 0.754027 0.000000
v 0.320242 0.828828 -0.154220
v 0.221614 0.828828 -0.277896
v 0.079093 0.828828 -0.346530
v -0.079093 0.828828 -0.346530
v -0.221614 0.828828 -0.277896
v -0.320242 0.828828 -0.154220
v -0.355442 0.828828 -0.000000
v -0.320242 0.828828 0.154220
v -0.221614 0.828828 0.277896
v -0.079093 0.828828 0.346530
v 0.079093 0.828828 0.346530
v 0.221614 0.828828 0.277896
v 0.320242 0.828828 0.154220
v 0.355442 0.828828 0.000000
v 0.346530 0.912213 -0.166880
v 0.239806 0.912213 -0.300708
v 0.085586 0.912213 -0.374976
v -0.085586 0.912213 -0.374976
v -0.239806 0.912213 -0.300708
v -0.346530 0.912213 -0.166880
v -0.384619 0.912213 -0.000000
v -0.346530 0.912213 0.166880
v -0.239806 0.912213 0.300708
v -0.085586 0.912213 0.374976
v 0.085586 0.912213 0.374976
v 0.239806 0.912213 0.300708
v 0.346530 0.912213 0.166880
v 0.384620 0.912213 0.000000
v 0.355442 1.000000 -0.171172
v 0.245973 1.000000 -0.308441
v 0.087787 1.000000 -0.384619
v -0.087787 1.000000 -0.384620
v -0.245973 1.000000 -0.308441
v -0.355442 1.000000 -0.171172
v -0.394511 1.000000 -0.000000
v -0.355442 1.000000 0.171172
v -0.245973 1.000000 0.308441
v -0.087787 1.000000 0.384619
v 0.087787 1.000000 0.384620
v 0.245973 1.000000 0.308441
v 0.355442 1.000000 0.171172
v 0.394511 1.000000 0.000000
v 0.346530 1.087787 -0.166880
v 0.239806 1.087787 -0.300708
v 0.085586 1.087787 -0.374976
v -0.085586 1.087787 -0.374976
v -0.239806 1.087787 -0.300708
v -0.346530 1.087787 -0.166880
v -0.384619 1.087787 -0.000000
v -0.346530 1.087787 0.166880
v -0.239806 1.087787 0.300708
v -0.085586 1.087787 0.374976
v 0.085586 1.087787 0.374976
v 0.239806 1.087787 0.300708
v 0.346530 1.087787 0.166880
v 0.384620 1.087787 0.000000
v 0.320242 1.171172 -0.154220
v 0.221614 1.171172 -0.277896
v 0.079093 1.171172 -0.346530
v -0.079093 1.171172 -0.346530
v -0.221614 1.171172 -0.277896
v -0.320242 1.171172 -0.154220
v -0.355442 1.171172 -0.000000
v -0.320242 1.171172 0.154220
v -0.221614 1.171172 0.277896
v -0.079093 1.171172 0.346530
v 0.079093 1.171172 0.346530
v 0.221614 1.171172 0.277896
v 0.320242 1.171172 0.154220
v 0.355442 1.171172 0.000000
v 0.277896 1.245973 -0.133827
v 0.192310 1.245973 -0.241149
v 0.068635 1.245973 -0.300708
v -0.068634 1.245973 -0.300708
v -0.192310 1.245973 -0.241149
v -0.277896 1.245973 -0.133828
v -0.308441 1.245973 -0.000000
v -0.277896 1.245973 0.133827
v -0.192310 1.245973 0.241149
v -0.068635 1.245973 0.300708
v 0.068635 1.245973 0.300708
v 0.192310 1.245973 0.241149
v 0.277896 1.245973 0.133828
v 0.308441 1.245973 0.000000
v 0.221614 1.308441 -0.106724
v 0.153362 1.308441 -0.192310
v 0.054734 1.308441 -0.239806
v -0.054734 1.308441 -0.239806
v -0.153362 1.308441 -0.192310
v -0.221614 1.308441 -0.106724
v -0.245973 1.308441 -0.000000
v -0.221614 1.308441 0.106724
v -0.153362 1.308441 0.192310
v -0.054734 1.308441 0.239806
v 0.054734 1.308441 0.239806
v 0.153362 1.308441 0.192310
v 0.221614 1.308441 0.106724
v 0.245973 1.308441 0.000000
v 0.154220 1.355442 -0.074269
v 0.106724 1.355442 -0.133827
v 0.038089 1.355442 -0.166880
v -0.038089 1.355442 -0.166880
v -0.106724 1.355442 -0.133828
v -0.154220 1.355442 -0.074269
v -0.171172 1.355442 -0.000000
v -0.154220 1.355442 0.074269
v -0.106724 1.355442 0.133827
v -0.038089 1.355442 0.166880
v 0.038089 1.355442 0.166880
v 0.106724 1.355442 0.133828
v 0.154220 1.355442 0.074269
v 0.171172 1.355442 0.000000
v 0.079093 1.384620 -0.038089
v 0.054734 1.384620 -0.068635
v 0.019534 1.384620 -0.085586
v -0.019534 1.384620 -0.085586
v -0.054734 1.384620 -0.068635
v -0.079093 1.384620 -0.038089
v -0.087787 1.384620 -0.000000
v -0.079093 1.384620 0.038089
v -0.054734 1.384620 0.068635
v -0.019534 1.384620 0.085586
v 0.019534 1.384620 0.085586
v 0.054734 1.384620 0.068635
v 0.079093 1.384620 0.038089
v 0.087787 1.384620 0.000000
v 0.000000 0.605489 0.000000
v 0.000000 1.394511 0.000000
vt 0.000000 0.071429
vt 0.071429 0.071429
vt 0.142857 0.071429
vt 0.214286 0.071429
vt 0.285714 0.071429
vt 0.357143 0.071429
vt 0.428571 0.071429
vt 0.500000 0.071429
vt 0.571429 0.071429
vt 0.642857 0.071429
vt 0.714286 0.071429
vt 0.785714 0.071429
vt 0.857143 0.071429
vt 0.928572 0.071429
vt 1.000000 0.071429
vt 0.000000 0.142857
vt 0.071429 0.142857
vt 0.142857 0.142857
vt 0.214286 0.142857
vt 0.285714 0.142857
vt 0.357143 0.142857
vt 0.428571 0.142857
vt 0.500000 0.142857
vt 0.571429 0.142857
vt 0.642857 0.142857
vt 0.714286 0.142857
vt 0.785714 0.142857
vt 0.857143 0.142857
vt 0.928572 0.142857
vt 1.000000 0.142857
vt 0.000000 0.214286
vt 0.071429 0.214286
vt 0.142857 0.214286
vt 0.214286 0.214286
vt 0.285714 0.214286
vt 0.357143 0.214286
vt 0.428571 0.214286
vt 0.500000 0.214286
vt 0.571429 0.214286
vt 0.642857 0.214286
vt 0.714286 0.214286
vt 0.785714 0.214286
vt 0.857143 0.214286
vt 0.928572 0.214286
vt 1.000000 0.214286
vt 0.000000 0.285714
vt 0.071429 0.285714
vt 0.142857 0.285714
vt 0.214286 0.285714
vt 0.285714 0.285714
vt 0.357143 0.285714
vt 0.428571 0.285714
vt 0.500000 0.285714
vt 0.571429 0.285714
vt 0.642857 0.285714
vt 0.714286 0.285714
vt 0.785714 0.285714
vt 0.857143 0.285714
vt 0.928572 0.285714
vt 1.000000 0.285714
vt 0.000000 0.357143
vt 0.071429 0.357143
vt 0.142857 0.357143
vt 0.214286 0.357143
vt 0.285714 0.357143
vt 0.357143 0.357143
vt 0.428571 0.357143
vt 0.500000 0.357143
vt 0.571429 0.357143
vt 0.642857 0.357143
vt 0.714286 0.357143
vt 0.785714 0.357143
vt 0.857143 0.357143
vt 0.928572 0.357143
vt 1.000000 0.357143
vt 0.000000 0.428571
vt 0.071429 0.428571
vt 0.142857 0.428571
vt 0.214286 0.428571
vt 0.285714 0.428571
vt 0.357143 0.428571
vt 0.428571 0.428571
vt 0.500000 0.428571
vt 0.571429 0.428571
vt 0.642857 0.428571
vt 0.714286 0.428571
vt 0.785714 0.428571
vt 0.857143 0.428571
vt 0.928572 0.428571
vt 1.000000 0.428571
vt 0.000000 0.500000
vt 0.071429 0.500000
vt 0.142857 0.500000
vt 0.214286 0.500000
vt 0.285714 0.500000
vt 0.357143 0.500000
vt 0.428571 0.500000
vt 0.500000 0.500000
vt 0.571429 0.500000
vt 0.642857 0.500000
vt 0.714286 0.500000
vt 0.785714 0.500000
vt 0.857143 0.500000
vt 0.928572 0.500000
vt 1.000000 0.500000
vt 0.000000 0.571429
vt 0.071429 0.571429
vt 0.142857 0.571429
vt 0.214286 0.571429
vt 0.285714 0.571429
vt 0.357143 0.571429
vt 0.428571 0.571429
vt 0.500000 0.571429
vt 0.571429 0.571429
vt 0.642857 0.571429
vt 0.714286 0.571429
vt 0.785714 0.571429
vt 0.857143 0.571429
vt 0.928572 0.571429
vt 1.000000 0.571429
vt 0.000000 0.642857
vt 0.071429 0.642857
vt 0.142857 0.642857
vt 0.214286 0.642857
vt 0.285714 0.642857
vt 0.357143 0.642857
vt 0.428571 0.642857
vt 0.500000 0.642857
vt 0.571429 0.642857
vt 0.642857 0.642857
vt 0.714286 0.642857
vt 0.785714 0.642857
vt 0.857143 0.642857
vt 0.928572 0.642857
vt 1.000000 0.642857
vt 0.000000 0.714286
vt 0.071429 0.714286
vt 0.142857 0.714286
vt 0.214286 0.714286
vt 0.285714 0.714286
vt 0.357143 0.714286
vt 0.428571 0.714286
vt 0.500000 0.714286
vt 0.571429 0.714286
vt 0.642857 0.714286
vt 0.714286 0.714286
vt 0.785714 0.714286
vt 0.857143 0.714286
vt 0.928572 0.714286
vt 1.000000 0.714286
vt 0.000000 0.785714
vt 0.071429 0.785714
vt 0.142857 0.785714
vt 0.214286 0.785714
vt 0.285714 0.785714
vt 0.357143 0.785714
vt 0.428571 0.785714
vt 0.500000 0.785714
vt 0.571429 0.785714
vt 0.642857 0.785714
vt 0.714286 0.785714
vt 0.785714 0.785714
vt 0.857143 0.785714
vt 0.928572 0.785714
vt 1.000000 0.785714
vt 0.000000 0.857143
vt 0.071429 0.857143
vt 0.142857 0.857143
vt 0.214286 0.857143
vt 0.285714 0.857143
vt 0.357143 0.857143
vt 0.428571 0.857143
vt 0.500000 0.857143
vt 0.571429 0.857143
vt 0.642857 0.857143
vt 0.714286 0.857143
vt 0.785714 0.857143
vt 0.857143 0.857143
vt 0.928572 0.857143
vt 1.000000 0.857143
vt 0.000000 0.928572
vt 0.071429 0.928572
vt 0.142857 0.928572
vt 0.214286 0.928572
vt 0.285714 0.928572
vt 0.357143 0.928572
vt 0.428571 0.928572
vt 0.500000 0.928572
vt 0.571429 0.928572
vt 0.642857 0.928572
vt 0.714286 0.928572
vt 0.785714 0.928572
vt 0.857143 0.928572
vt 0.928572 0.928572
vt 1.000000 0.928572
vt 0.035714 0.000000
vt 0.107143 0.000000
vt 0.178571 0.000000
vt 0.250000 0.000000
vt 0.321429 0.000000
vt 0.392857 0.000000
vt 0.464286 0.000000
vt 0.535714 0.000000
vt 0.607143 0.000000
vt 0.678571 0.000000
vt 0.750000 0.000000
vt 0.821429 0.000000
vt 0.892857 0.000000
vt 0.964286 0.000000
vt 0.035714 1.000000
vt 0.107143 1.000000
vt 0.178571 1.000000
vt 0.250000 1.000000
vt 0.321429 1.000000
vt 0.392857 1.000000
vt 0.464286 1.000000
vt 0.535714 1.000000
vt 0.607143 1.000000
vt 0.678571 1.000000
vt 0.750000 1.000000
vt 0.821429 1.000000
vt 0.892857 1.000000
vt 0.964286 1.000000
vn 0.258492 -0.957959 -0.124483
vn 0.178882 -0.957959 -0.224311
vn 0.292570 -0.883068 -0.366871
vn 0.422776 -0.883068 -0.203598
vn 0.063842 -0.957959 -0.279711
vn 0.104417 -0.883068 -0.457480
vn -0.063842 -0.957959 -0.279711
vn -0.104417 -0.883068 -0.457480
vn -0.178882 -0.957959 -0.224310
vn -0.292570 -0.883068 -0.366871
vn -0.258492 -0.957959 -0.124483
vn -0.422776 -0.883068 -0.203598
vn -0.286905 -0.957959 -0.000000
vn -0.469245 -0.883068 -0.000000
vn -0.258492 -0.957959 0.124483
vn -0.422776 -0.883068 0.203598
vn -0.178882 -0.957959 0.224311
vn -0.292570 -0.883068 0.366871
vn -0.063842 -0.957959 0.279711
vn -0.104417 -0.883068 0.457480
vn 0.063842 -0.957959 0.279711
vn 0.104417 -0.883068 0.457480
vn 0.178882 -0.957959 0.224310
vn 0.292570 -0.883068 0.366871
vn 0.258492 -0.957959 0.124483
vn 0.422776 -0.883068 0.203598
vn 0.286904 -0.957959 0.000000
vn 0.469245 -0.883068 0.000000
vn 0.402263 -0.764031 -0.504422
vn 0.581287 -0.764031 -0.279933
vn 0.143566 -0.764031 -0.629004
vn -0.143566 -0.764031 -0.629004
vn -0.402263 -0.764031 -0.504422
vn -0.581287 -0.764031 -0.279933
vn -0.645180 -0.764031 -0.000000
vn -0.581287 -0.764031 0.279933
vn -0.402263 -0.764031 0.504422
vn -0.143566 -0.764031 0.629004
vn 0.143566 -0.764031 0.629004
vn 0.402263 -0.764031 0.504422
vn 0.581287 -0.764031 0.279933
vn 0.645180 -0.764031 0.000000
vn 0.495145 -0.607722 -0.620891
vn 0.715504 -0.607722 -0.344569
vn 0.176715 -0.607722 -0.774239
vn -0.176715 -0.607722 -0.774239
vn -0.495144 -0.607722 -0.620892
vn -0.715504 -0.607722 -0.344569
vn -0.794150 -0.607722 -0.000000
vn -0.715504 -0.607722 0.344569
vn -0.495145 -0.607722 0.620891
vn -0.176715 -0.607722 0.774239
vn 0.176715 -0.607722 0.774239
vn 0.495144 -0.607722 0.620892
vn 0.715504 -0.607722 0.344569
vn 0.794150 -0.607722 0.000000
vn 0.565231 -0.422077 -0.708777
vn 0.816782 -0.422077 -0.393342
vn 0.201729 -0.422077 -0.883831
vn -0.201728 -0.422077 -0.883831
vn -0.565231 -0.422077 -0.708777
vn -0.816782 -0.422077 -0.393342
vn -0.906560 -0.422077 -0.000000
vn -0.816782 -0.422077 0.393341
vn -0.565231 -0.422077 0.708777
vn -0.201729 -0.422077 0.883831
vn 0.201728 -0.422077 0.883831
vn 0.565231 -0.422077 0.708777
vn 0.816782 -0.422077 0.393342
vn 0.906560 -0.422077 0.000000
vn 0.608744 -0.216199 -0.763341
vn 0.879660 -0.216199 -0.423622
vn 0.217258 -0.216199 -0.951870
vn -0.217258 -0.216199 -0.951870
vn -0.608744 -0.216199 -0.763341
vn -0.879660 -0.216199 -0.423622
vn -0.976349 -0.216199 -0.000000
vn -0.879660 -0.216199 0.423622
vn -0.608744 -0.216199 0.763341
vn -0.217258 -0.216199 0.951870
vn 0.217258 -0.216199 0.951870
vn 0.608744 -0.216199 0.763341
vn 0.879660 -0.216199 0.423622
vn 0.976349 -0.216199 0.000000
vn 0.623490 0.000000 -0.781831
vn 0.900969 0.000000 -0.433884
vn 0.222521 0.000000 -0.974928
vn -0.222521 -0.000000 -0.974928
vn -0.623490 0.000000 -0.781832
vn -0.900969 0.000000 -0.433884
vn -1.000000 0.000000 -0.000000
vn -0.900969 0.000000 0.433884
vn -0.623490 -0.000000 0.781831
vn -0.222521 0.000000 0.974928
vn 0.222521 0.000000 0.974928
vn 0.623490 0.000000 0.781832
vn 0.900969 -0.000000 0.433884
vn 1.000000 -0.000000 0.000000
vn 0.608744 0.216199 -0.763341
vn 0.879660 0.216199 -0.423622
vn 0.217258 0.216199 -0.951870
vn -0.217258 0.216199 -0.951870
vn -0.608744 0.216199 -0.763341
vn -0.879660 0.216199 -0.423622
vn -0.976349 0.216199 -0.000000
vn -0.879660 0.216199 0.423622
vn -0.608744 0.216199 0.763341
vn -0.217258 0.216199 0.951870
vn 0.217258 0.216199 0.951870
vn 0.608744 0.216199 0.763341
vn 0.879660 0.216199 0.423622
vn 0.976349 0.216199 0.000000
vn 0.565231 0.422077 -0.708777
vn 0.816782 0.422077 -0.393342
vn 0.201729 0.422077 -0.883831
vn -0.201728 0.422077 -0.883831
vn -0.565231 0.422077 -0.708777
vn -0.816782 0.422077 -0.393342
vn -0.906560 0.422077 -0.000000
vn -0.816782 0.422077 0.393342
vn -0.565231 0.422077 0.708777
vn -0.201729 0.422077 0.883831
vn 0.201728 0.422077 0.883831
vn 0.565231 0.422077 0.708777
vn 0.816782 0.422077 0.393342
vn 0.906560 0.422077 0.000000
vn 0.495145 0.607722 -0.620891
vn 0.715504 0.607722 -0.344569
vn 0.176715 0.607722 -0.774239
vn -0.176715 0.607722 -0.774239
vn -0.495144 0.607722 -0.620892
vn -0.715504 0.607722 -0.344569
vn -0.794150 0.607722 -0.000000
vn -0.715504 0.607722 0.344569
vn -0.495145 0.607722 0.620891
vn -0.176715 0.607722 0.774239
vn 0.176715 0.607722 0.774239
vn 0.495144 0.607722 0.620892
vn 0.715504 0.607722 0.344569
vn 0.794150 0.607722 0.000000
vn 0.402263 0.764031 -0.504422
vn 0.581287 0.764031 -0.279933
vn 0.143566 0.764031 -0.629004
vn -0.143566 0.764031 -0.629004
vn -0.402263 0.764031 -0.504422
vn -0.581287 0.764031 -0.279933
vn -0.645180 0.764031 -0.000000
vn -0.581287 0.764031 0.279933
vn -0.402263 0.764031 0.504422
vn -0.143566 0.764031 0.629004
vn 0.143566 0.764031 0.629004
vn 0.402263 0.764031 0.504422
vn 0.581287 0.764031 0.279933
vn 0.645180 0.764031 0.000000
vn 0.292570 0.883068 -0.366871
vn 0.422776 0.883068 -0.203598
vn 0.104417 0.883068 -0.457480
vn -0.104417 0.883068 -0.457480
vn -0.292570 0.883068 -0.366871
vn -0.422776 0.883068 -0.203598
vn -0.469245 0.883068 -0.000000
vn -0.422776 0.883068 0.203598
vn -0.292570 0.883068 0.366871
vn -0.104417 0.883068 0.457480
vn 0.104417 0.883068 0.457480
vn 0.292570 0.883068 0.366871
vn 0.422776 0.883068 0.203598
vn 0.469245 0.883068 0.000000
vn 0.178882 0.957959 -0.224311
vn 0.258492 0.957959 -0.124483
vn 0.063842 0.957959 -0.279711
vn -0.063842 0.957959 -0.279711
vn -0.178882 0.957959 -0.224311
vn -0.258492 0.957959 -0.124483
vn -0.286905 0.957959 -0.000000
vn -0.258492 0.957959 0.124483
vn -0.178882 0.957959 0.224311
vn -0.063842 0.957959 0.279711
vn 0.063842 0.957959 0.279711
vn 0.178882 0.957959 0.224311
vn 0.258492 0.957959 0.124483
vn 0.286904 0.957959 0.000000
vn 0.000000 -1.000000 -0.000000
vn 0.000000 1.000000 -0.000000
s 1
g pSphere1
usemtl initialShadingGroup
f 197/226/197 198/227/198 212/242/199 211/241/200
f 198/227/198 199/228/201 213/243/202 212/242/199
f 199/228/201 200/229/203 214/244/204 213/243/202
f 200/229/203 201/230/205 215/245/206 214/244/204
f 201/230/205 202/231/207 216/246/208 215/245/206
f 202/231/207 203/232/209 217/247/210 216/246/208
f 203/232/209 204/233/211 218/248/212 217/247/210
f 204/233/211 205/234/213 219/249/214 218/248/212
f 205/234/213 206/235/215 220/250/216 219/249/214
f 206/235/215 207/236/217 221/251/218 220/250/216
f 207/236/217 208/237/219 222/252/220 221/251/218
f 208/237/219 209/238/221 223/253/222 222/252/220
f 209/238/221 210/239/223 224/254/224 223/253/222
f 210/239/223 197/240/197 211/255/200 224/254/224
f 211/241/200 212/242/199 226/257/225 225/256/226
f 212/242/199 213/243/202 227/258/227 226/257/225
f 213/243/202 214/244/204 228/259/228 227/258/227
f 214/244/204 215/245/206 229/260/229 228/259/228
f 215/245/206 216/246/208 230/261/230 229/260/229
f 216/246/208 217/247/210 231/262/231 230/261/230
f 217/247/210 218/248/212 232/263/232 231/262/231
f 218/248/212 219/249/214 233/264/233 232/263/232
f 219/249/214 220/250/216 234/265/234 233/264/233
f 220/250/216 221/251/218 235/266/235 234/265/234
f 221/251/218 222/252/220 236/267/236 235/266/235
f 222/252/220 223/253/222 237/268/237 236/267/236
f 223/253/222 224/254/224 238/269/238 237/268/237
f 224/254/224 211/255/200 225/270/226 238/269/238
f 225/256/226 226/257/225 240/272/239 239/271/240
f 226/257/225 227/258/227 241/273/241 240/272/239
f 227/258/227 228/259/228 242/274/242 241/273/241
f 228/259/228 229/260/229 243/275/243 242/274/242
f 229/260/229 230/261/230 244/276/244 243/275/243
f 230/261/230 231/262/231 245/277/245 244/276/244
f 231/262/231 232/263/232 246/278/246 245/277/245
f 232/263/232 233/264/233 247/279/247 246/278/246
f 233/264/233 234/265/234 248/280/248 247/279/247
f 234/265/234 235/266/235 249/281/249 248/280/248
f 235/266/235 236/267/236 250/282/250 249/281/249
f 236/267/236 237/268/237 251/283/251 250/282/250
f 237/268/237 238/269/238 252/284/252 251/283/251
f 238/269/238 225/270/226 239/285/240 252/284/252
f 239/271/240 240/272/239 254/287/253 253/286/254
f 240/272/239 241/273/241 255/288/255 254/287/253
f 241/273/241 242/274/242 256/289/256 255/288/255
f 242/274/242 243/275/243 257/290/257 256/289/256
f 243/275/243 244/276/244 258/291/258 257/290/257
f 244/276/244 245/277/245 259/292/259 258/291/258
f 245/277/245 246/278/246 260/293/260 259/292/259
f 246/278/246 247/279/247 261/294/261 260/293/260
f 247/279/247 248/280/248 262/295/262 261/294/261
f 248/280/248 249/281/249 263/296/263 262/295/262
f 249/281/249 250/282/250 264/297/264 263/296/263
f 250/282/250 251/283/251 265/298/265 264/297/264
f 251/283/251 252/284/252 266/299/266 265/298/265
f 252/284/252 239/285/240 253/300/254 266/299/266
f 253/286/254 254/287/253 268/302/267 267/301/268
f 254/287/253 255/288/255 269/303/269 268/302/267
f 255/288/255 256/289/256 270/304/270 269/303/269
f 256/289/256 257/290/257 271/305/271 270/304/270
f 257/290/257 258/291/258 272/306/272 271/305/271
f 258/291/258 259/292/259 273/307/273 272/306/272
f 259/292/259 260/293/260 274/308/274 273/307/273
f 260/293/260 261/294/261 275/309/275 274/308/274
f 261/294/261 262/295/262 276/310/276 275/309/275
f 262/295/262 263/296/263 277/311/277 276/310/276
f 263/296/263 264/297/264 278/312/278 277/311/277
f 264/297/264 265/298/265 279/313/279 278/312/278
f 265/298/265 266/299/266 280/314/280 279/313/279
f 266/299/266 253/300/254 267/315/268 280/314/280
f 267/301/268 268/302/267 282/317/281 281/316/282
f 268/302/267 269/303/269 283/318/283 282/317/281
f 269/303/269 270/304/270 284/319/284 283/318/283
f 270/304/270 271/305/271 285/320/285 284/319/284
f 271/305/271 272/306/272 286/321/286 285/320/285
f 272/306/272 273/307/273 287/322/287 286/321/286
f 273/307/273 274/308/274 288/323/288 287/322/287
f 274/308/274 275/309/275 289/324/289 288/323/288
f 275/309/275 276/310/276 290/325/290 289/324/289
f 276/310/276 277/311/277 291/326/291 290/325/290
f 277/311/277 278/312/278 292/327/292 291/326/291
f 278/312/278 279/313/279 293/328/293 292/327/292
f 279/313/279 280/314/280 294/329/294 293/328/293
f 280/314/280 267/315/268 281/330/282 294/329/294
f 281/316/282 282/317/281 296/332/295 295/331/296
f 282/317/281 283/318/283 297/333/297 296/332/295
f 283/318/283 284/319/284 298/334/298 297/333/297
f 284/319/284 285/320/285 299/335/299 298/334/298
f 285/320/285 286/321/286 300/336/300 299/335/299
f 286/321/286 287/322/287 301/337/301 300/336/300
f 287/322/287 288/323/288 302/338/302 301/337/301
f 288/323/288 289/324/289 303/339/303 302/338/302
f 289/324/289 290/325/290 304/340/304 303/339/303
f 290/325/290 291/326/291 305/341/305 304/340/304
f 291/326/291 292/327/292 306/342/306 305/341/305
f 292/327/292 293/328/293 307/343/307 306/342/306
f 293/328/293 294/329/294 308/344/308 307/343/307
f 294/329/294 281/330/282 295/345/296 308/344/308
f 295/331/296 296/332/295 310/347/309 309/346/310
f 296/332/295 297/333/297 311/348/311 310/347/309
f 297/333/297 298/334/298 312/349/312 311/348/311
f 298/334/298 299/335/299 313/350/313 312/349/312
f 299/335/299 300/336/300 314/351/314 313/350/313
f 300/336/300 301/337/301 315/352/315 314/351/314
f 301/337/301 302/338/302 316/353/316 315/352/315
f 302/338/302 303/339/303 317/354/317 316/353/316
f 303/339/303 304/340/304 318/355/318 317/354/317
f 304/340/304 305/341/305 319/356/319 318/355/318
f 305/341/305 306/342/306 320/357/320 319/356/319
f 306/342/306 307/343/307 321/358/321 320/357/320
f 307/343/307 308/344/308 322/359/322 321/358/321
f 308/344/308 295/345/296 309/360/310 322/359/322
f 309/346/310 310/347/309 324/362/323 323/361/324
f 310/347/309 311/348/311 325/363/325 324/362/323
f 311/348/311 312/349/312 326/364/326 325/363/325
f 312/349/312 313/350/313 327/365/327 326/364/326
f 313/350/313 314/351/314 328/366/328 327/365/327
f 314/351/314 315/352/315 329/367/329 328/366/328
f 315/352/315 316/353/316 330/368/330 329/367/329
f 316/353/316 317/354/317 331/369/331 330/368/330
f 317/354/317 318/355/318 332/370/332 331/369/331
f 318/355/318 319/356/319 333/371/333 332/370/332
f 319/356/319 320/357/320 334/372/334 333/371/333
f 320/357/320 321/358/321 335/373/335 334/372/334
f 321/358/321 322/359/322 336/374/336 335/373/335
f 322/359/322 309/360/310 323/375/324 336/374/336
f 323/361/324 324/362/323 338/377/337 337/376/338
f 324/362/323 325/363/325 339/378/339 338/377/337
f 325/363/325 326/364/326 340/379/340 339/378/339
f 326/364/326 327/365/327 341/380/341 340/379/340
f 327/365/327 328/366/328 342/381/342 341/380/341
f 328/366/328 329/367/329 343/382/343 342/381/342
f 329/367/329 330/368/330 344/383/344 343/382/343
f 330/368/330 331/369/331 345/384/345 344/383/344
f 331/369/331 332/370/332 346/385/346 345/384/345
f 332/370/332 333/371/333 347/386/347 346/385/346
f 333/371/333 334/372/334 348/387/348 347/386/347
f 334/372/334 335/373/335 349/388/349 348/387/348
f 335/373/335 336/374/336 350/389/350 349/388/349
f 336/374/336 323/375/324 337/390/338 350/389/350
f 337/376/338 338/377/337 352/392/351 351/391/352
f 338/377/337 339/378/339 353/393/353 352/392/351
f 339/378/339 340/379/340 354/394/354 353/393/353
f 340/379/340 341/380/341 355/395/355 354/394/354
f 341/380/341 342/381/342 356/396/356 355/395/355
f 342/381/342 343/382/343 357/397/357 356/396/356
f 343/382/343 344/383/344 358/398/358 357/397/357
f 344/383/344 345/384/345 359/399/359 358/398/358
f 345/384/345 346/385/346 360/400/360 359/399/359
f 346/385/346 347/386/347 361/401/361 360/400/360
f 347/386/347 348/387/348 362/402/362 361/401/361
f 348/387/348 349/388/349 363/403/363 362/402/362
f 349/388/349 350/389/350 364/404/364 363/403/363
f 350/389/350 337/390/338 351/405/352 364/404/364
f 351/391/352 352/392/351 366/407/365 365/406/366
f 352/392/351 353/393/353 367/408/367 366/407/365
f 353/393/353 354/394/354 368/409/368 367/408/367
f 354/394/354 355/395/355 369/410/369 368/409/368
f 355/395/355 356/396/356 370/411/370 369/410/369
f 356/396/356 357/397/357 371/412/371 370/411/370
f 357/397/357 358/398/358 372/413/372 371/412/371
f 358/398/358 359/399/359 373/414/373 372/413/372
f 359/399/359 360/400/360 374/415/374 373/414/373
f 360/400/360 361/401/361 375/416/375 374/415/374
f 361/401/361 362/402/362 376/417/376 375/416/375
f 362/402/362 363/403/363 377/418/377 376/417/376
f 363/403/363 364/404/364 378/419/378 377/418/377
f 364/404/364 351/405/352 365/420/366 378/419/378
f 198/227/198 197/226/197 379/421/379
f 199/228/201 198/227/198 379/422/379
f 200/229/203 199/228/201 379/423/379
f 201/230/205 200/229/203 379/424/379
f 202/231/207 201/230/205 379/425/379
f 203/232/209 202/231/207 379/426/379
f 204/233/211 203/232/209 379/427/379
f 205/234/213 204/233/211 379/428/379
f 206/235/215 205/234/213 379/429/379
f 207/236/217 206/235/215 379/430/379
f 208/237/219 207/236/217 379/431/379
f 209/238/221 208/237/219 379/432/379
f 210/239/223 209/238/221 379/433/379
f 197/240/197 210/239/223 379/434/379
f 365/406/366 366/407/365 380/435/380
f 366/407/365 367/408/367 380/436/380
f 367/408/367 368/409/368 380/437/380
f 368/409/368 369/410/369 380/438/380
f 369/410/369 370/411/370 380/439/380
f 370/411/370 371/412/371 380/440/380
f 371/412/371 372/413/372 380/441/380
f 372/413/372 373/414/373 380/442/380
f 373/414/373 374/415/374 380/443/380
f 374/415/374 375/416/375 380/444/380
f 375/416/375 376/417/376 380/445/380
f 376/417/376 377/418/377 380/446/380
f 377/418/377 378/419/378 380/447/380
f 378/419/378 365/420/366 380/448/380
