# This file uses centimeters as units for non-parametric coordinates.

mtllib curvy3.mtl
g default
v 0.200484 -0.974928 -0.096548
v 0.138740 -0.974928 -0.173974
v 0.049516 -0.974928 -0.216942
v -0.049516 -0.974928 -0.216942
v -0.138739 -0.974928 -0.173974
v -0.200484 -0.974928 -0.096548
v -0.222521 -0.974928 -0.000000
v -0.200484 -0.974928 0.096548
v -0.138740 -0.974928 0.173974
v -0.049516 -0.974928 0.216942
v 0.049516 -0.974928 0.216942
v 0.138740 -0.974928 0.173974
v 0.200484 -0.974928 0.096548
v 0.222521 -0.974928 0.000000
v 0.390916 -0.900969 -0.188255
v 0.270522 -0.900969 -0.339224
v 0.096548 -0.900969 -0.423005
v -0.096548 -0.900969 -0.423005
v -0.270522 -0.900969 -0.339224
v -0.390916 -0.900969 -0.188255
v -0.433884 -0.900969 -0.000000
v -0.390916 -0.900969 0.188255
v -0.270522 -0.900969 0.339224
v -0.096548 -0.900969 0.423005
v 0.096548 -0.900969 0.423005
v 0.270522 -0.900969 0.339224
v 0.390916 -0.900969 0.188255
v 0.433884 -0.900969 0.000000
v 0.561745 -0.781831 -0.270522
v 0.388740 -0.781831 -0.487464
v 0.138740 -0.781831 -0.607858
v -0.138739 -0.781831 -0.607858
v -0.388739 -0.781831 -0.487464
v -0.561745 -0.781831 -0.270522
v -0.623490 -0.781831 -0.000000
v -0.561745 -0.781831 0.270522
v -0.388740 -0.781831 0.487464
v -0.138740 -0.781831 0.607858
v 0.138739 -0.781831 0.607858
v 0.388740 -0.781831 0.487464
v 0.561745 -0.781831 0.270522
v 0.623490 -0.781831 0.000000
v 0.704406 -0.623490 -0.339224
v 0.487464 -0.623490 -0.611260
v 0.173974 -0.623490 -0.762229
v -0.173974 -0.623490 -0.762229
v -0.487464 -0.623490 -0.611260
v -0.704406 -0.623490 -0.339224
v -0.781831 -0.623490 -0.000000
v -0.704406 -0.623490 0.339224
v -0.487464 -0.623490 0.611260
v -0.173974 -0.623490 0.762229
v 0.173974 -0.623490 0.762229
v 0.487464 -0.623490 0.611260
v 0.704406 -0.623490 0.339224
v 0.781832 -0.623490 0.000000
v 0.811745 -0.433884 -0.390915
v 0.561745 -0.433884 -0.704406
v 0.200485 -0.433884 -0.878380
v -0.200484 -0.433884 -0.878380
v -0.561745 -0.433884 -0.704406
v -0.811745 -0.433884 -0.390916
v -0.900969 -0.433884 -0.000000
v -0.811745 -0.433884 0.390916
v -0.561745 -0.433884 0.704406
v -0.200485 -0.433884 0.878380
v 0.200484 -0.433884 0.878380
v 0.561745 -0.433884 0.704406
v 0.811745 -0.433884 0.390916
v 0.900969 -0.433884 0.000000
v 0.878380 -0.222521 -0.423005
v 0.607858 -0.222521 -0.762229
v 0.216942 -0.222521 -0.950484
v -0.216942 -0.222521 -0.950484
v -0.607857 -0.222521 -0.762229
v -0.878380 -0.222521 -0.423005
v -0.974928 -0.222521 -0.000000
v -0.878380 -0.222521 0.423005
v -0.607858 -0.222521 0.762229
v -0.216942 -0.222521 0.950484
v 0.216942 -0.222521 0.950484
v 0.607858 -0.222521 0.762229
v 0.878380 -0.222521 0.423005
v 0.974928 -0.222521 0.000000
v 0.900969 0.000000 -0.433883
v 0.623490 0.000000 -0.781831
v 0.222521 0.000000 -0.974928
v -0.222521 0.000000 -0.974928
v -0.623490 0.000000 -0.781832
v -0.900969 0.000000 -0.433884
v -1.000000 0.000000 -0.000000
v -0.900969 0.000000 0.433884
v -0.623490 0.000000 0.781831
v -0.222521 0.000000 0.974928
v 0.222521 0.000000 0.974928
v 0.623490 0.000000 0.781832
v 0.900969 0.000000 0.433884
v 1.000000 0.000000 0.000000
v 0.878380 0.222521 -0.423005
v 0.607858 0.222521 -0.762229
v 0.216942 0.222521 -0.950484
v -0.216942 0.222521 -0.950484
v -0.607857 0.222521 -0.762229
v -0.878380 0.222521 -0.423005
v -0.974928 0.222521 -0.000000
v -0.878380 0.222521 0.423005
v -0.607858 0.222521 0.762229
v -0.216942 0.222521 0.950484
v 0.216942 0.222521 0.950484
v 0.607858 0.222521 0.762229
v 0.878380 0.222521 0.423005
v 0.974928 0.222521 0.000000
v 0.811745 0.433884 -0.390915
v 0.561745 0.433884 -0.704406
v 0.200485 0.433884 -0.878380
v -0.200484 0.433884 -0.878380
v -0.561745 0.433884 -0.704406
v -0.811745 0.433884 -0.390916
v -0.900969 0.433884 -0.000000
v -0.811745 0.433884 0.390916
v -0.561745 0.433884 0.704406
v -0.200485 0.433884 0.878380
v 0.200484 0.433884 0.878380
v 0.561745 0.433884 0.704406
v 0.811745 0.433884 0.390916
v 0.900969 0.433884 0.000000
v 0.704406 0.623490 -0.339224
v 0.487464 0.623490 -0.611260
v 0.173974 0.623490 -0.762229
v -0.173974 0.623490 -0.762229
v -0.487464 0.623490 -0.611260
v -0.704406 0.623490 -0.339224
v -0.781831 0.623490 -0.000000
v -0.704406 0.623490 0.339224
v -0.487464 0.623490 0.611260
v -0.173974 0.623490 0.762229
v 0.173974 0.623490 0.762229
v 0.487464 0.623490 0.611260
v 0.704406 0.623490 0.339224
v 0.781832 0.623490 0.000000
v 0.561745 0.781831 -0.270522
v 0.388740 0.781831 -0.487464
v 0.138740 0.781831 -0.607858
v -0.138739 0.781831 -0.607858
v -0.388739 0.781831 -0.487464
v -0.561745 0.781831 -0.270522
v -0.623490 0.781831 -0.000000
v -0.561745 0.781831 0.270522
v -0.388740 0.781831 0.487464
v -0.138740 0.781831 0.607858
v 0.138739 0.781831 0.607858
v 0.388740 0.781831 0.487464
v 0.561745 0.781831 0.270522
v 0.623490 0.781831 0.000000
v 0.390916 0.900969 -0.188255
v 0.270522 0.900969 -0.339224
v 0.096548 0.900969 -0.423005
v -0.096548 0.900969 -0.423005
v -0.270522 0.900969 -0.339224
v -0.390916 0.900969 -0.188255
v -0.433884 0.900969 -0.000000
v -0.390916 0.900969 0.188255
v -0.270522 0.900969 0.339224
v -0.096548 0.900969 0.423005
v 0.096548 0.900969 0.423005
v 0.270522 0.900969 0.339224
v 0.390916 0.900969 0.188255
v 0.433884 0.900969 0.000000
v 0.200484 0.974928 -0.096548
v 0.138740 0.974928 -0.173974
v 0.049516 0.974928 -0.216942
v -0.049516 0.974928 -0.216942
v -0.138739 0.974928 -0.173974
v -0.200484 0.974928 -0.096548
v -0.222521 0.974928 -0.000000
v -0.200484 0.974928 0.096548
v -0.138740 0.974928 0.173974
v -0.049516 0.974928 0.216942
v 0.049516 0.974928 0.216942
v 0.138740 0.974928 0.173974
v 0.200484 0.974928 0.096548
v 0.222521 0.974928 0.000000
v 0.000000 -1.000000 0.000000
v 0.000000 1.000000 0.000000
vt 0.000000 0.071429
vt 0.071429 0.071429
vt 0.142857 0.071429
vt 0.214286 0.071429
vt 0.285714 0.071429
vt 0.357143 0.071429
vt 0.428571 0.071429
vt 0.500000 0.071429
vt 0.571429 0.071429
vt 0.642857 0.071429
vt 0.714286 0.071429
vt 0.785714 0.071429
vt 0.857143 0.071429
vt 0.928572 0.071429
vt 1.000000 0.071429
vt 0.000000 0.142857
vt 0.071429 0.142857
vt 0.142857 0.142857
vt 0.214286 0.142857
vt 0.285714 0.142857
vt 0.357143 0.142857
vt 0.428571 0.142857
vt 0.500000 0.142857
vt 0.571429 0.142857
vt 0.642857 0.142857
vt 0.714286 0.142857
vt 0.785714 0.142857
vt 0.857143 0.142857
vt 0.928572 0.142857
vt 1.000000 0.142857
vt 0.000000 0.214286
vt 0.071429 0.214286
vt 0.142857 0.214286
vt 0.214286 0.214286
vt 0.285714 0.214286
vt 0.357143 0.214286
vt 0.428571 0.214286
vt 0.500000 0.214286
vt 0.571429 0.214286
vt 0.642857 0.214286
vt 0.714286 0.214286
vt 0.785714 0.214286
vt 0.857143 0.214286
vt 0.928572 0.214286
vt 1.000000 0.214286
vt 0.000000 0.285714
vt 0.071429 0.285714
vt 0.142857 0.285714
vt 0.214286 0.285714
vt 0.285714 0.285714
vt 0.357143 0.285714
vt 0.428571 0.285714
vt 0.500000 0.285714
vt 0.571429 0.285714
vt 0.642857 0.285714
vt 0.714286 0.285714
vt 0.785714 0.285714
vt 0.857143 0.285714
vt 0.928572 0.285714
vt 1.000000 0.285714
vt 0.000000 0.357143
vt 0.071429 0.357143
vt 0.142857 0.357143
vt 0.214286 0.357143
vt 0.285714 0.357143
vt 0.357143 0.357143
vt 0.428571 0.357143
vt 0.500000 0.357143
vt 0.571429 0.357143
vt 0.642857 0.357143
vt 0.714286 0.357143
vt 0.785714 0.357143
vt 0.857143 0.357143
vt 0.928572 0.357143
vt 1.000000 0.357143
vt 0.000000 0.428571
vt 0.071429 0.428571
vt 0.142857 0.428571
vt 0.214286 0.428571
vt 0.285714 0.428571
vt 0.357143 0.428571
vt 0.428571 0.428571
vt 0.500000 0.428571
vt 0.571429 0.428571
vt 0.642857 0.428571
vt 0.714286 0.428571
vt 0.785714 0.428571
vt 0.857143 0.428571
vt 0.928572 0.428571
vt 1.000000 0.428571
vt 0.000000 0.500000
vt 0.071429 0.500000
vt 0.142857 0.500000
vt 0.214286 0.500000
vt 0.285714 0.500000
vt 0.357143 0.500000
vt 0.428571 0.500000
vt 0.500000 0.500000
vt 0.571429 0.500000
vt 0.642857 0.500000
vt 0.714286 0.500000
vt 0.785714 0.500000
vt 0.857143 0.500000
vt 0.928572 0.500000
vt 1.000000 0.500000
vt 0.000000 0.571429
vt 0.071429 0.571429
vt 0.142857 0.571429
vt 0.214286 0.571429
vt 0.285714 0.571429
vt 0.357143 0.571429
vt 0.428571 0.571429
vt 0.500000 0.571429
vt 0.571429 0.571429
vt 0.642857 0.571429
vt 0.714286 0.571429
vt 0.785714 0.571429
vt 0.857143 0.571429
vt 0.928572 0.571429
vt 1.000000 0.571429
vt 0.000000 0.642857
vt 0.071429 0.642857
vt 0.142857 0.642857
vt 0.214286 0.642857
vt 0.285714 0.642857
vt 0.357143 0.642857
vt 0.428571 0.642857
vt 0.500000 0.642857
vt 0.571429 0.642857
vt 0.642857 0.642857
vt 0.714286 0.642857
vt 0.785714 0.642857
vt 0.857143 0.642857
vt 0.928572 0.642857
vt 1.000000 0.642857
vt 0.000000 0.714286
vt 0.071429 0.714286
vt 0.142857 0.714286
vt 0.214286 0.714286
vt 0.285714 0.714286
vt 0.357143 0.714286
vt 0.428571 0.714286
vt 0.500000 0.714286
vt 0.571429 0.714286
vt 0.642857 0.714286
vt 0.714286 0.714286
vt 0.785714 0.714286
vt 0.857143 0.714286
vt 0.928572 0.714286
vt 1.000000 0.714286
vt 0.000000 0.785714
vt 0.071429 0.785714
vt 0.142857 0.785714
vt 0.214286 0.785714
vt 0.285714 0.785714
vt 0.357143 0.785714
vt 0.428571 0.785714
vt 0.500000 0.785714
vt 0.571429 0.785714
vt 0.642857 0.785714
vt 0.714286 0.785714
vt 0.785714 0.785714
vt 0.857143 0.785714
vt 0.928572 0.785714
vt 1.000000 0.785714
vt 0.000000 0.857143
vt 0.071429 0.857143
vt 0.142857 0.857143
vt 0.214286 0.857143
vt 0.285714 0.857143
vt 0.357143 0.857143
vt 0.428571 0.857143
vt 0.500000 0.857143
vt 0.571429 0.857143
vt 0.642857 0.857143
vt 0.714286 0.857143
vt 0.785714 0.857143
vt 0.857143 0.857143
vt 0.928572 0.857143
vt 1.000000 0.857143
vt 0.000000 0.928572
vt 0.071429 0.928572
vt 0.142857 0.928572
vt 0.214286 0.928572
vt 0.285714 0.928572
vt 0.357143 0.928572
vt 0.428571 0.928572
vt 0.500000 0.928572
vt 0.571429 0.928572
vt 0.642857 0.928572
vt 0.714286 0.928572
vt 0.785714 0.928572
vt 0.857143 0.928572
vt 0.928572 0.928572
vt 1.000000 0.928572
vt 0.035714 0.000000
vt 0.107143 0.000000
vt 0.178571 0.000000
vt 0.250000 0.000000
vt 0.321429 0.000000
vt 0.392857 0.000000
vt 0.464286 0.000000
vt 0.535714 0.000000
vt 0.607143 0.000000
vt 0.678571 0.000000
vt 0.750000 0.000000
vt 0.821429 0.000000
vt 0.892857 0.000000
vt 0.964286 0.000000
vt 0.035714 1.000000
vt 0.107143 1.000000
vt 0.178571 1.000000
vt 0.250000 1.000000
vt 0.321429 1.000000
vt 0.392857 1.000000
vt 0.464286 1.000000
vt 0.535714 1.000000
vt 0.607143 1.000000
vt 0.678571 1.000000
vt 0.750000 1.000000
vt 0.821429 1.000000
vt 0.892857 1.000000
vt 0.964286 1.000000
vn 0.258492 -0.957959 -0.124483
vn 0.178882 -0.957959 -0.224311
vn 0.292570 -0.883068 -0.366871
vn 0.422776 -0.883068 -0.203598
vn 0.063842 -0.957959 -0.279711
vn 0.104417 -0.883068 -0.457480
vn -0.063842 -0.957959 -0.279711
vn -0.104417 -0.883068 -0.457480
vn -0.178882 -0.957959 -0.224310
vn -0.292570 -0.883068 -0.366871
vn -0.258492 -0.957959 -0.124483
vn -0.422776 -0.883068 -0.203598
vn -0.286905 -0.957959 -0.000000
vn -0.469245 -0.883068 -0.000000
vn -0.258492 -0.957959 0.124483
vn -0.422776 -0.883068 0.203598
vn -0.178882 -0.957959 0.224311
vn -0.292570 -0.883068 0.366871
vn -0.063842 -0.957959 0.279711
vn -0.104417 -0.883068 0.457480
vn 0.063842 -0.957959 0.279711
vn 0.104417 -0.883068 0.457480
vn 0.178882 -0.957959 0.224310
vn 0.292570 -0.883068 0.366871
vn 0.258492 -0.957959 0.124483
vn 0.422776 -0.883068 0.203598
vn 0.286904 -0.957959 0.000000
vn 0.469245 -0.883068 0.000000
vn 0.402263 -0.764031 -0.504422
vn 0.581287 -0.764031 -0.279933
vn 0.143566 -0.764031 -0.629004
vn -0.143566 -0.764031 -0.629004
vn -0.402263 -0.764031 -0.504422
vn -0.581287 -0.764031 -0.279933
vn -0.645180 -0.764031 -0.000000
vn -0.581287 -0.764031 0.279933
vn -0.402263 -0.764031 0.504422
vn -0.143566 -0.764031 0.629004
vn 0.143566 -0.764031 0.629004
vn 0.402263 -0.764031 0.504422
vn 0.581287 -0.764031 0.279933
vn 0.645180 -0.764031 0.000000
vn 0.495145 -0.607722 -0.620891
vn 0.715505 -0.607722 -0.344569
vn 0.176715 -0.607722 -0.774239
vn -0.176715 -0.607722 -0.774239
vn -0.495144 -0.607722 -0.620892
vn -0.715504 -0.607722 -0.344569
vn -0.794150 -0.607722 -0.000000
vn -0.715504 -0.607722 0.344569
vn -0.495145 -0.607722 0.620891
vn -0.176715 -0.607722 0.774239
vn 0.176715 -0.607722 0.774239
vn 0.495144 -0.607722 0.620892
vn 0.715504 -0.607722 0.344569
vn 0.794150 -0.607722 0.000000
vn 0.565231 -0.422077 -0.708777
vn 0.816782 -0.422077 -0.393342
vn 0.201729 -0.422077 -0.883831
vn -0.201728 -0.422077 -0.883831
vn -0.565231 -0.422077 -0.708777
vn -0.816782 -0.422077 -0.393342
vn -0.906560 -0.422077 -0.000000
vn -0.816782 -0.422077 0.393341
vn -0.565231 -0.422077 0.708777
vn -0.201729 -0.422077 0.883831
vn 0.201728 -0.422077 0.883831
vn 0.565231 -0.422077 0.708777
vn 0.816782 -0.422077 0.393342
vn 0.906560 -0.422077 0.000000
vn 0.608744 -0.216199 -0.763340
vn 0.879660 -0.216199 -0.423622
vn 0.217258 -0.216199 -0.951870
vn -0.217258 -0.216199 -0.951870
vn -0.608744 -0.216199 -0.763341
vn -0.879660 -0.216199 -0.423622
vn -0.976349 -0.216199 -0.000000
vn -0.879660 -0.216199 0.423622
vn -0.608744 -0.216199 0.763341
vn -0.217258 -0.216199 0.951870
vn 0.217258 -0.216199 0.951870
vn 0.608744 -0.216199 0.763341
vn 0.879660 -0.216199 0.423622
vn 0.976349 -0.216199 0.000000
vn 0.623490 0.000000 -0.781831
vn 0.900969 0.000000 -0.433884
vn 0.222521 0.000000 -0.974928
vn -0.222521 -0.000000 -0.974928
vn -0.623490 0.000000 -0.781832
vn -0.900969 0.000000 -0.433884
vn -1.000000 0.000000 -0.000000
vn -0.900969 0.000000 0.433884
vn -0.623490 -0.000000 0.781831
vn -0.222521 0.000000 0.974928
vn 0.222521 0.000000 0.974928
vn 0.623490 0.000000 0.781832
vn 0.900969 -0.000000 0.433884
vn 1.000000 -0.000000 0.000000
vn 0.608744 0.216199 -0.763340
vn 0.879660 0.216199 -0.423622
vn 0.217258 0.216199 -0.951870
vn -0.217258 0.216199 -0.951870
vn -0.608744 0.216199 -0.763341
vn -0.879660 0.216199 -0.423622
vn -0.976349 0.216199 -0.000000
vn -0.879660 0.216199 0.423622
vn -0.608744 0.216199 0.763341
vn -0.217258 0.216199 0.951870
vn 0.217258 0.216199 0.951870
vn 0.608744 0.216199 0.763341
vn 0.879660 0.216199 0.423622
vn 0.976349 0.216199 0.000000
vn 0.565231 0.422077 -0.708777
vn 0.816782 0.422077 -0.393342
vn 0.201729 0.422077 -0.883831
vn -0.201728 0.422077 -0.883831
vn -0.565231 0.422077 -0.708777
vn -0.816782 0.422077 -0.393342
vn -0.906560 0.422077 -0.000000
vn -0.816782 0.422077 0.393341
vn -0.565231 0.422077 0.708777
vn -0.201729 0.422077 0.883831
vn 0.201728 0.422077 0.883831
vn 0.565231 0.422077 0.708777
vn 0.816782 0.422077 0.393342
vn 0.906560 0.422077 0.000000
vn 0.495145 0.607722 -0.620891
vn 0.715504 0.607722 -0.344569
vn 0.176715 0.607722 -0.774239
vn -0.176715 0.607722 -0.774239
vn -0.495144 0.607722 -0.620892
vn -0.715504 0.607722 -0.344569
vn -0.794150 0.607722 -0.000000
vn -0.715504 0.607722 0.344569
vn -0.495145 0.607722 0.620891
vn -0.176715 0.607722 0.774239
vn 0.176715 0.607722 0.774239
vn 0.495144 0.607722 0.620892
vn 0.715504 0.607722 0.344569
vn 0.794150 0.607722 0.000000
vn 0.402263 0.764031 -0.504422
vn 0.581287 0.764031 -0.279933
vn 0.143566 0.764031 -0.629004
vn -0.143566 0.764031 -0.629004
vn -0.402263 0.764031 -0.504422
vn -0.581287 0.764031 -0.279933
vn -0.645180 0.764031 -0.000000
vn -0.581287 0.764031 0.279933
vn -0.402263 0.764031 0.504422
vn -0.143566 0.764031 0.629004
vn 0.143566 0.764031 0.629004
vn 0.402263 0.764031 0.504422
vn 0.581287 0.764031 0.279933
vn 0.645180 0.764031 0.000000
vn 0.292570 0.883068 -0.366871
vn 0.422776 0.883068 -0.203598
vn 0.104417 0.883068 -0.457481
vn -0.104417 0.883068 -0.457480
vn -0.292570 0.883068 -0.366871
vn -0.422776 0.883068 -0.203598
vn -0.469245 0.883068 -0.000000
vn -0.422776 0.883068 0.203598
vn -0.292570 0.883068 0.366871
vn -0.104417 0.883068 0.457480
vn 0.104417 0.883068 0.457480
vn 0.292570 0.883068 0.366871
vn 0.422776 0.883068 0.203598
vn 0.469245 0.883068 0.000000
vn 0.178882 0.957959 -0.224311
vn 0.258492 0.957959 -0.124483
vn 0.063842 0.957959 -0.279711
vn -0.063842 0.957959 -0.279711
vn -0.178882 0.957959 -0.224311
vn -0.258492 0.957959 -0.124483
vn -0.286905 0.957959 -0.000000
vn -0.258492 0.957959 0.124483
vn -0.178882 0.957959 0.224311
vn -0.063842 0.957959 0.279711
vn 0.063842 0.957959 0.279711
vn 0.178882 0.957959 0.224311
vn 0.258492 0.957959 0.124483
vn 0.286904 0.957959 0.000000
vn 0.000000 -1.000000 -0.000000
vn 0.000000 1.000000 -0.000000
s 1
g curvy2:pSphere1
usemtl initialShadingGroup
f 1/1/1 2/2/2 16/17/3 15/16/4
f 2/2/2 3/3/5 17/18/6 16/17/3
f 3/3/5 4/4/7 18/19/8 17/18/6
f 4/4/7 5/5/9 19/20/10 18/19/8
f 5/5/9 6/6/11 20/21/12 19/20/10
f 6/6/11 7/7/13 21/22/14 20/21/12
f 7/7/13 8/8/15 22/23/16 21/22/14
f 8/8/15 9/9/17 23/24/18 22/23/16
f 9/9/17 10/10/19 24/25/20 23/24/18
f 10/10/19 11/11/21 25/26/22 24/25/20
f 11/11/21 12/12/23 26/27/24 25/26/22
f 12/12/23 13/13/25 27/28/26 26/27/24
f 13/13/25 14/14/27 28/29/28 27/28/26
f 14/14/27 1/15/1 15/30/4 28/29/28
f 15/16/4 16/17/3 30/32/29 29/31/30
f 16/17/3 17/18/6 31/33/31 30/32/29
f 17/18/6 18/19/8 32/34/32 31/33/31
f 18/19/8 19/20/10 33/35/33 32/34/32
f 19/20/10 20/21/12 34/36/34 33/35/33
f 20/21/12 21/22/14 35/37/35 34/36/34
f 21/22/14 22/23/16 36/38/36 35/37/35
f 22/23/16 23/24/18 37/39/37 36/38/36
f 23/24/18 24/25/20 38/40/38 37/39/37
f 24/25/20 25/26/22 39/41/39 38/40/38
f 25/26/22 26/27/24 40/42/40 39/41/39
f 26/27/24 27/28/26 41/43/41 40/42/40
f 27/28/26 28/29/28 42/44/42 41/43/41
f 28/29/28 15/30/4 29/45/30 42/44/42
f 29/31/30 30/32/29 44/47/43 43/46/44
f 30/32/29 31/33/31 45/48/45 44/47/43
f 31/33/31 32/34/32 46/49/46 45/48/45
f 32/34/32 33/35/33 47/50/47 46/49/46
f 33/35/33 34/36/34 48/51/48 47/50/47
f 34/36/34 35/37/35 49/52/49 48/51/48
f 35/37/35 36/38/36 50/53/50 49/52/49
f 36/38/36 37/39/37 51/54/51 50/53/50
f 37/39/37 38/40/38 52/55/52 51/54/51
f 38/40/38 39/41/39 53/56/53 52/55/52
f 39/41/39 40/42/40 54/57/54 53/56/53
f 40/42/40 41/43/41 55/58/55 54/57/54
f 41/43/41 42/44/42 56/59/56 55/58/55
f 42/44/42 29/45/30 43/60/44 56/59/56
f 43/46/44 44/47/43 58/62/57 57/61/58
f 44/47/43 45/48/45 59/63/59 58/62/57
f 45/48/45 46/49/46 60/64/60 59/63/59
f 46/49/46 47/50/47 61/65/61 60/64/60
f 47/50/47 48/51/48 62/66/62 61/65/61
f 48/51/48 49/52/49 63/67/63 62/66/62
f 49/52/49 50/53/50 64/68/64 63/67/63
f 50/53/50 51/54/51 65/69/65 64/68/64
f 51/54/51 52/55/52 66/70/66 65/69/65
f 52/55/52 53/56/53 67/71/67 66/70/66
f 53/56/53 54/57/54 68/72/68 67/71/67
f 54/57/54 55/58/55 69/73/69 68/72/68
f 55/58/55 56/59/56 70/74/70 69/73/69
f 56/59/56 43/60/44 57/75/58 70/74/70
f 57/61/58 58/62/57 72/77/71 71/76/72
f 58/62/57 59/63/59 73/78/73 72/77/71
f 59/63/59 60/64/60 74/79/74 73/78/73
f 60/64/60 61/65/61 75/80/75 74/79/74
f 61/65/61 62/66/62 76/81/76 75/80/75
f 62/66/62 63/67/63 77/82/77 76/81/76
f 63/67/63 64/68/64 78/83/78 77/82/77
f 64/68/64 65/69/65 79/84/79 78/83/78
f 65/69/65 66/70/66 80/85/80 79/84/79
f 66/70/66 67/71/67 81/86/81 80/85/80
f 67/71/67 68/72/68 82/87/82 81/86/81
f 68/72/68 69/73/69 83/88/83 82/87/82
f 69/73/69 70/74/70 84/89/84 83/88/83
f 70/74/70 57/75/58 71/90/72 84/89/84
f 71/76/72 72/77/71 86/92/85 85/91/86
f 72/77/71 73/78/73 87/93/87 86/92/85
f 73/78/73 74/79/74 88/94/88 87/93/87
f 74/79/74 75/80/75 89/95/89 88/94/88
f 75/80/75 76/81/76 90/96/90 89/95/89
f 76/81/76 77/82/77 91/97/91 90/96/90
f 77/82/77 78/83/78 92/98/92 91/97/91
f 78/83/78 79/84/79 93/99/93 92/98/92
f 79/84/79 80/85/80 94/100/94 93/99/93
f 80/85/80 81/86/81 95/101/95 94/100/94
f 81/86/81 82/87/82 96/102/96 95/101/95
f 82/87/82 83/88/83 97/103/97 96/102/96
f 83/88/83 84/89/84 98/104/98 97/103/97
f 84/89/84 71/90/72 85/105/86 98/104/98
f 85/91/86 86/92/85 100/107/99 99/106/100
f 86/92/85 87/93/87 101/108/101 100/107/99
f 87/93/87 88/94/88 102/109/102 101/108/101
f 88/94/88 89/95/89 103/110/103 102/109/102
f 89/95/89 90/96/90 104/111/104 103/110/103
f 90/96/90 91/97/91 105/112/105 104/111/104
f 91/97/91 92/98/92 106/113/106 105/112/105
f 92/98/92 93/99/93 107/114/107 106/113/106
f 93/99/93 94/100/94 108/115/108 107/114/107
f 94/100/94 95/101/95 109/116/109 108/115/108
f 95/101/95 96/102/96 110/117/110 109/116/109
f 96/102/96 97/103/97 111/118/111 110/117/110
f 97/103/97 98/104/98 112/119/112 111/118/111
f 98/104/98 85/105/86 99/120/100 112/119/112
f 99/106/100 100/107/99 114/122/113 113/121/114
f 100/107/99 101/108/101 115/123/115 114/122/113
f 101/108/101 102/109/102 116/124/116 115/123/115
f 102/109/102 103/110/103 117/125/117 116/124/116
f 103/110/103 104/111/104 118/126/118 117/125/117
f 104/111/104 105/112/105 119/127/119 118/126/118
f 105/112/105 106/113/106 120/128/120 119/127/119
f 106/113/106 107/114/107 121/129/121 120/128/120
f 107/114/107 108/115/108 122/130/122 121/129/121
f 108/115/108 109/116/109 123/131/123 122/130/122
f 109/116/109 110/117/110 124/132/124 123/131/123
f 110/117/110 111/118/111 125/133/125 124/132/124
f 111/118/111 112/119/112 126/134/126 125/133/125
f 112/119/112 99/120/100 113/135/114 126/134/126
f 113/121/114 114/122/113 128/137/127 127/136/128
f 114/122/113 115/123/115 129/138/129 128/137/127
f 115/123/115 116/124/116 130/139/130 129/138/129
f 116/124/116 117/125/117 131/140/131 130/139/130
f 117/125/117 118/126/118 132/141/132 131/140/131
f 118/126/118 119/127/119 133/142/133 132/141/132
f 119/127/119 120/128/120 134/143/134 133/142/133
f 120/128/120 121/129/121 135/144/135 134/143/134
f 121/129/121 122/130/122 136/145/136 135/144/135
f 122/130/122 123/131/123 137/146/137 136/145/136
f 123/131/123 124/132/124 138/147/138 137/146/137
f 124/132/124 125/133/125 139/148/139 138/147/138
f 125/133/125 126/134/126 140/149/140 139/148/139
f 126/134/126 113/135/114 127/150/128 140/149/140
f 127/136/128 128/137/127 142/152/141 141/151/142
f 128/137/127 129/138/129 143/153/143 142/152/141
f 129/138/129 130/139/130 144/154/144 143/153/143
f 130/139/130 131/140/131 145/155/145 144/154/144
f 131/140/131 132/141/132 146/156/146 145/155/145
f 132/141/132 133/142/133 147/157/147 146/156/146
f 133/142/133 134/143/134 148/158/148 147/157/147
f 134/143/134 135/144/135 149/159/149 148/158/148
f 135/144/135 136/145/136 150/160/150 149/159/149
f 136/145/136 137/146/137 151/161/151 150/160/150
f 137/146/137 138/147/138 152/162/152 151/161/151
f 138/147/138 139/148/139 153/163/153 152/162/152
f 139/148/139 140/149/140 154/164/154 153/163/153
f 140/149/140 127/150/128 141/165/142 154/164/154
f 141/151/142 142/152/141 156/167/155 155/166/156
f 142/152/141 143/153/143 157/168/157 156/167/155
f 143/153/143 144/154/144 158/169/158 157/168/157
f 144/154/144 145/155/145 159/170/159 158/169/158
f 145/155/145 146/156/146 160/171/160 159/170/159
f 146/156/146 147/157/147 161/172/161 160/171/160
f 147/157/147 148/158/148 162/173/162 161/172/161
f 148/158/148 149/159/149 163/174/163 162/173/162
f 149/159/149 150/160/150 164/175/164 163/174/163
f 150/160/150 151/161/151 165/176/165 164/175/164
f 151/161/151 152/162/152 166/177/166 165/176/165
f 152/162/152 153/163/153 167/178/167 166/177/166
f 153/163/153 154/164/154 168/179/168 167/178/167
f 154/164/154 141/165/142 155/180/156 168/179/168
f 155/166/156 156/167/155 170/182/169 169/181/170
f 156/167/155 157/168/157 171/183/171 170/182/169
f 157/168/157 158/169/158 172/184/172 171/183/171
f 158/169/158 159/170/159 173/185/173 172/184/172
f 159/170/159 160/171/160 174/186/174 173/185/173
f 160/171/160 161/172/161 175/187/175 174/186/174
f 161/172/161 162/173/162 176/188/176 175/187/175
f 162/173/162 163/174/163 177/189/177 176/188/176
f 163/174/163 164/175/164 178/190/178 177/189/177
f 164/175/164 165/176/165 179/191/179 178/190/178
f 165/176/165 166/177/166 180/192/180 179/191/179
f 166/177/166 167/178/167 181/193/181 180/192/180
f 167/178/167 168/179/168 182/194/182 181/193/181
f 168/179/168 155/180/156 169/195/170 182/194/182
f 2/2/2 1/1/1 183/196/183
f 3/3/5 2/2/2 183/197/183
f 4/4/7 3/3/5 183/198/183
f 5/5/9 4/4/7 183/199/183
f 6/6/11 5/5/9 183/200/183
f 7/7/13 6/6/11 183/201/183
f 8/8/15 7/7/13 183/202/183
f 9/9/17 8/8/15 183/203/183
f 10/10/19 9/9/17 183/204/183
f 11/11/21 10/10/19 183/205/183
f 12/12/23 11/11/21 183/206/183
f 13/13/25 12/12/23 183/207/183
f 14/14/27 13/13/25 183/208/183
f 1/15/1 14/14/27 183/209/183
f 169/181/170 170/182/169 184/210/184
f 170/182/169 171/183/171 184/211/184
f 171/183/171 172/184/172 184/212/184
f 172/184/172 173/185/173 184/213/184
f 173/185/173 174/186/174 184/214/184
f 174/186/174 175/187/175 184/215/184
f 175/187/175 176/188/176 184/216/184
f 176/188/176 177/189/177 184/217/184
f 177/189/177 178/190/178 184/218/184
f 178/190/178 179/191/179 184/219/184
f 179/191/179 180/192/180 184/220/184
f 180/192/180 181/193/181 184/221/184
f 181/193/181 182/194/182 184/222/184
f 182/194/182 169/195/170 184/223/184
g default
v 0.054168 0.765871 0.458353
v 0.037486 0.765871 0.437434
v 0.013379 0.765871 0.425824
v -0.013378 0.765871 0.425824
v -0.037486 0.765871 0.437434
v -0.054168 0.765871 0.458353
v -0.060122 0.765871 0.484439
v -0.054168 0.765871 0.510526
v -0.037486 0.765871 0.531445
v -0.013379 0.765871 0.543055
v 0.013379 0.765871 0.543055
v 0.037486 0.765871 0.531445
v 0.054168 0.765871 0.510526
v 0.060122 0.765871 0.484439
v 0.105621 0.785854 0.433575
v 0.073092 0.785854 0.392785
v 0.026086 0.785854 0.370149
v -0.026086 0.785854 0.370149
v -0.073092 0.785854 0.392785
v -0.105621 0.785854 0.433575
v -0.117230 0.785854 0.484439
v -0.105621 0.785854 0.535304
v -0.073092 0.785854 0.576094
v -0.026086 0.785854 0.598730
v 0.026086 0.785854 0.598730
v 0.073092 0.785854 0.576094
v 0.105621 0.785854 0.535304
v 0.117230 0.785854 0.484439
v 0.151777 0.818043 0.411348
v 0.105033 0.818043 0.352733
v 0.037486 0.818043 0.320204
v -0.037486 0.818043 0.320204
v -0.105033 0.818043 0.352733
v -0.151777 0.818043 0.411348
v -0.168459 0.818043 0.484439
v -0.151777 0.818043 0.557531
v -0.105033 0.818043 0.616146
v -0.037486 0.818043 0.648675
v 0.037486 0.818043 0.648675
v 0.105033 0.818043 0.616146
v 0.151777 0.818043 0.557531
v 0.168459 0.818043 0.484439
v 0.190322 0.860825 0.392785
v 0.131707 0.860825 0.319284
v 0.047006 0.860825 0.278494
v -0.047006 0.860825 0.278494
v -0.131707 0.860825 0.319284
v -0.190322 0.860825 0.392785
v -0.211241 0.860825 0.484439
v -0.190322 0.860825 0.576094
v -0.131707 0.860825 0.649595
v -0.047006 0.860825 0.690385
v 0.047006 0.860825 0.690385
v 0.131707 0.860825 0.649595
v 0.190322 0.860825 0.576094
v 0.211241 0.860825 0.484439
v 0.219324 0.912054 0.378819
v 0.151777 0.912054 0.294118
v 0.054169 0.912054 0.247112
v -0.054168 0.912054 0.247112
v -0.151777 0.912054 0.294117
v -0.219324 0.912054 0.378819
v -0.243431 0.912054 0.484439
v -0.219324 0.912054 0.590060
v -0.151777 0.912054 0.674761
v -0.054169 0.912054 0.721767
v 0.054168 0.912054 0.721767
v 0.151777 0.912054 0.674761
v 0.219324 0.912054 0.590060
v 0.243431 0.912054 0.484439
v 0.237328 0.969162 0.370149
v 0.164236 0.969162 0.278494
v 0.058615 0.969162 0.227630
v -0.058615 0.969162 0.227630
v -0.164236 0.969162 0.278494
v -0.237328 0.969162 0.370149
v -0.263414 0.969162 0.484439
v -0.237328 0.969162 0.598730
v -0.164236 0.969162 0.690385
v -0.058615 0.969162 0.741249
v 0.058615 0.969162 0.741249
v 0.164236 0.969162 0.690385
v 0.237328 0.969162 0.598730
v 0.263414 0.969162 0.484439
v 0.243431 1.029285 0.367209
v 0.168459 1.029285 0.273198
v 0.060123 1.029285 0.221026
v -0.060122 1.029285 0.221026
v -0.168459 1.029285 0.273198
v -0.243431 1.029285 0.367209
v -0.270188 1.029285 0.484439
v -0.243431 1.029285 0.601670
v -0.168459 1.029285 0.695681
v -0.060122 1.029285 0.747853
v 0.060122 1.029285 0.747853
v 0.168459 1.029285 0.695681
v 0.243431 1.029285 0.601670
v 0.270188 1.029285 0.484439
v 0.237328 1.089407 0.370149
v 0.164236 1.089407 0.278494
v 0.058615 1.089407 0.227630
v -0.058615 1.089407 0.227630
v -0.164236 1.089407 0.278494
v -0.237328 1.089407 0.370149
v -0.263414 1.089407 0.484439
v -0.237328 1.089407 0.598730
v -0.164236 1.089407 0.690385
v -0.058615 1.089407 0.741249
v 0.058615 1.089407 0.741249
v 0.164236 1.089407 0.690385
v 0.237328 1.089407 0.598730
v 0.263414 1.089407 0.484439
v 0.219324 1.146515 0.378819
v 0.151777 1.146515 0.294118
v 0.054169 1.146515 0.247112
v -0.054168 1.146515 0.247112
v -0.151777 1.146515 0.294117
v -0.219324 1.146515 0.378819
v -0.243431 1.146515 0.484439
v -0.219324 1.146515 0.590060
v -0.151777 1.146515 0.674761
v -0.054169 1.146515 0.721767
v 0.054168 1.146515 0.721767
v 0.151777 1.146515 0.674761
v 0.219324 1.146515 0.590060
v 0.243431 1.146515 0.484439
v 0.190322 1.197744 0.392785
v 0.131707 1.197744 0.319284
v 0.047006 1.197744 0.278494
v -0.047006 1.197744 0.278494
v -0.131707 1.197744 0.319284
v -0.190322 1.197744 0.392785
v -0.211241 1.197744 0.484439
v -0.190322 1.197744 0.576094
v -0.131707 1.197744 0.649595
v -0.047006 1.197744 0.690385
v 0.047006 1.197744 0.690385
v 0.131707 1.197744 0.649595
v 0.190322 1.197744 0.576094
v 0.211241 1.197744 0.484439
v 0.151777 1.240526 0.411348
v 0.105033 1.240526 0.352733
v 0.037486 1.240526 0.320204
v -0.037486 1.240526 0.320204
v -0.105033 1.240526 0.352733
v -0.151777 1.240526 0.411348
v -0.168459 1.240526 0.484439
v -0.151777 1.240526 0.557531
v -0.105033 1.240526 0.616146
v -0.037486 1.240526 0.648675
v 0.037486 1.240526 0.648675
v 0.105033 1.240526 0.616146
v 0.151777 1.240526 0.557531
v 0.168459 1.240526 0.484439
v 0.105621 1.272715 0.433575
v 0.073092 1.272715 0.392785
v 0.026086 1.272715 0.370149
v -0.026086 1.272715 0.370149
v -0.073092 1.272715 0.392785
v -0.105621 1.272715 0.433575
v -0.117230 1.272715 0.484439
v -0.105621 1.272715 0.535304
v -0.073092 1.272715 0.576094
v -0.026086 1.272715 0.598730
v 0.026086 1.272715 0.598730
v 0.073092 1.272715 0.576094
v 0.105621 1.272715 0.535304
v 0.117230 1.272715 0.484439
v 0.054168 1.292698 0.458353
v 0.037486 1.292698 0.437434
v 0.013379 1.292698 0.425824
v -0.013378 1.292698 0.425824
v -0.037486 1.292698 0.437434
v -0.054168 1.292698 0.458353
v -0.060122 1.292698 0.484439
v -0.054168 1.292698 0.510526
v -0.037486 1.292698 0.531445
v -0.013379 1.292698 0.543055
v 0.013379 1.292698 0.543055
v 0.037486 1.292698 0.531445
v 0.054168 1.292698 0.510526
v 0.060122 1.292698 0.484439
v 0.000000 0.759097 0.484439
v 0.000000 1.299473 0.484439
v 0.054168 0.765871 -0.458353
v 0.037486 0.765871 -0.437434
v 0.013379 0.765871 -0.425824
v -0.013378 0.765871 -0.425824
v -0.037486 0.765871 -0.437434
v -0.054168 0.765871 -0.458353
v -0.060122 0.765871 -0.484440
v -0.054168 0.765871 -0.510526
v -0.037486 0.765871 -0.531445
v -0.013379 0.765871 -0.543055
v 0.013379 0.765871 -0.543055
v 0.037486 0.765871 -0.531445
v 0.054168 0.765871 -0.510526
v 0.060122 0.765871 -0.484440
v 0.105621 0.785854 -0.433575
v 0.073092 0.785854 -0.392785
v 0.026086 0.785854 -0.370149
v -0.026086 0.785854 -0.370149
v -0.073092 0.785854 -0.392785
v -0.105621 0.785854 -0.433575
v -0.117230 0.785854 -0.484440
v -0.105621 0.785854 -0.535304
v -0.073092 0.785854 -0.576094
v -0.026086 0.785854 -0.598730
v 0.026086 0.785854 -0.598730
v 0.073092 0.785854 -0.576094
v 0.105621 0.785854 -0.535304
v 0.117230 0.785854 -0.484440
v 0.151777 0.818043 -0.411348
v 0.105033 0.818043 -0.352733
v 0.037486 0.818043 -0.320204
v -0.037486 0.818043 -0.320204
v -0.105033 0.818043 -0.352733
v -0.151777 0.818043 -0.411348
v -0.168459 0.818043 -0.484440
v -0.151777 0.818043 -0.557531
v -0.105033 0.818043 -0.616146
v -0.037486 0.818043 -0.648675
v 0.037486 0.818043 -0.648675
v 0.105033 0.818043 -0.616146
v 0.151777 0.818043 -0.557531
v 0.168459 0.818043 -0.484440
v 0.190322 0.860825 -0.392785
v 0.131707 0.860825 -0.319284
v 0.047006 0.860825 -0.278494
v -0.047006 0.860825 -0.278494
v -0.131707 0.860825 -0.319284
v -0.190322 0.860825 -0.392785
v -0.211241 0.860825 -0.484440
v -0.190322 0.860825 -0.576094
v -0.131707 0.860825 -0.649595
v -0.047006 0.860825 -0.690385
v 0.047006 0.860825 -0.690385
v 0.131707 0.860825 -0.649595
v 0.190322 0.860825 -0.576094
v 0.211241 0.860825 -0.484440
v 0.219324 0.912054 -0.378819
v 0.151777 0.912054 -0.294118
v 0.054169 0.912054 -0.247112
v -0.054168 0.912054 -0.247112
v -0.151777 0.912054 -0.294118
v -0.219324 0.912054 -0.378819
v -0.243431 0.912054 -0.484440
v -0.219324 0.912054 -0.590060
v -0.151777 0.912054 -0.674761
v -0.054169 0.912054 -0.721767
v 0.054168 0.912054 -0.721767
v 0.151777 0.912054 -0.674761
v 0.219324 0.912054 -0.590060
v 0.243431 0.912054 -0.484440
v 0.237328 0.969162 -0.370149
v 0.164236 0.969162 -0.278494
v 0.058615 0.969162 -0.227630
v -0.058615 0.969162 -0.227630
v -0.164236 0.969162 -0.278494
v -0.237328 0.969162 -0.370149
v -0.263414 0.969162 -0.484439
v -0.237328 0.969162 -0.598730
v -0.164236 0.969162 -0.690385
v -0.058615 0.969162 -0.741249
v 0.058615 0.969162 -0.741249
v 0.164236 0.969162 -0.690385
v 0.237328 0.969162 -0.598730
v 0.263414 0.969162 -0.484440
v 0.243431 1.029285 -0.367209
v 0.168459 1.029285 -0.273198
v 0.060123 1.029285 -0.221026
v -0.060122 1.029285 -0.221026
v -0.168459 1.029285 -0.273198
v -0.243431 1.029285 -0.367209
v -0.270188 1.029285 -0.484439
v -0.243431 1.029285 -0.601670
v -0.168459 1.029285 -0.695681
v -0.060122 1.029285 -0.747853
v 0.060122 1.029285 -0.747853
v 0.168459 1.029285 -0.695681
v 0.243431 1.029285 -0.601670
v 0.270188 1.029285 -0.484440
v 0.237328 1.089407 -0.370149
v 0.164236 1.089407 -0.278494
v 0.058615 1.089407 -0.227630
v -0.058615 1.089407 -0.227630
v -0.164236 1.089407 -0.278494
v -0.237328 1.089407 -0.370149
v -0.263414 1.089407 -0.484439
v -0.237328 1.089407 -0.598730
v -0.164236 1.089407 -0.690385
v -0.058615 1.089407 -0.741249
v 0.058615 1.089407 -0.741249
v 0.164236 1.089407 -0.690385
v 0.237328 1.089407 -0.598730
v 0.263414 1.089407 -0.484440
v 0.219324 1.146515 -0.378819
v 0.151777 1.146515 -0.294118
v 0.054169 1.146515 -0.247112
v -0.054168 1.146515 -0.247112
v -0.151777 1.146515 -0.294118
v -0.219324 1.146515 -0.378819
v -0.243431 1.146515 -0.484440
v -0.219324 1.146515 -0.590060
v -0.151777 1.146515 -0.674761
v -0.054169 1.146515 -0.721767
v 0.054168 1.146515 -0.721767
v 0.151777 1.146515 -0.674761
v 0.219324 1.146515 -0.590060
v 0.243431 1.146515 -0.484440
v 0.190322 1.197744 -0.392785
v 0.131707 1.197744 -0.319284
v 0.047006 1.197744 -0.278494
v -0.047006 1.197744 -0.278494
v -0.131707 1.197744 -0.319284
v -0.190322 1.197744 -0.392785
v -0.211241 1.197744 -0.484440
v -0.190322 1.197744 -0.576094
v -0.131707 1.197744 -0.649595
v -0.047006 1.197744 -0.690385
v 0.047006 1.197744 -0.690385
v 0.131707 1.197744 -0.649595
v 0.190322 1.197744 -0.576094
v 0.211241 1.197744 -0.484440
v 0.151777 1.240526 -0.411348
v 0.105033 1.240526 -0.352733
v 0.037486 1.240526 -0.320204
v -0.037486 1.240526 -0.320204
v -0.105033 1.240526 -0.352733
v -0.151777 1.240526 -0.411348
v -0.168459 1.240526 -0.484440
v -0.151777 1.240526 -0.557531
v -0.105033 1.240526 -0.616146
v -0.037486 1.240526 -0.648675
v 0.037486 1.240526 -0.648675
v 0.105033 1.240526 -0.616146
v 0.151777 1.240526 -0.557531
v 0.168459 1.240526 -0.484440
v 0.105621 1.272715 -0.433575
v 0.073092 1.272715 -0.392785
v 0.026086 1.272715 -0.370149
v -0.026086 1.272715 -0.370149
v -0.073092 1.272715 -0.392785
v -0.105621 1.272715 -0.433575
v -0.117230 1.272715 -0.484440
v -0.105621 1.272715 -0.535304
v -0.073092 1.272715 -0.576094
v -0.026086 1.272715 -0.598730
v 0.026086 1.272715 -0.598730
v 0.073092 1.272715 -0.576094
v 0.105621 1.272715 -0.535304
v 0.117230 1.272715 -0.484440
v 0.054168 1.292698 -0.458353
v 0.037486 1.292698 -0.437434
v 0.013379 1.292698 -0.425824
v -0.013378 1.292698 -0.425824
v -0.037486 1.292698 -0.437434
v -0.054168 1.292698 -0.458353
v -0.060122 1.292698 -0.484440
v -0.054168 1.292698 -0.510526
v -0.037486 1.292698 -0.531445
v -0.013379 1.292698 -0.543055
v 0.013379 1.292698 -0.543055
v 0.037486 1.292698 -0.531445
v 0.054168 1.292698 -0.510526
v 0.060122 1.292698 -0.484440
v 0.000000 0.759097 -0.484440
v 0.000000 1.299473 -0.484440
vt 0.000000 0.071429
vt 0.071429 0.071429
vt 0.142857 0.071429
vt 0.214286 0.071429
vt 0.285714 0.071429
vt 0.357143 0.071429
vt 0.428571 0.071429
vt 0.500000 0.071429
vt 0.571429 0.071429
vt 0.642857 0.071429
vt 0.714286 0.071429
vt 0.785714 0.071429
vt 0.857143 0.071429
vt 0.928572 0.071429
vt 1.000000 0.071429
vt 0.000000 0.142857
vt 0.071429 0.142857
vt 0.142857 0.142857
vt 0.214286 0.142857
vt 0.285714 0.142857
vt 0.357143 0.142857
vt 0.428571 0.142857
vt 0.500000 0.142857
vt 0.571429 0.142857
vt 0.642857 0.142857
vt 0.714286 0.142857
vt 0.785714 0.142857
vt 0.857143 0.142857
vt 0.928572 0.142857
vt 1.000000 0.142857
vt 0.000000 0.214286
vt 0.071429 0.214286
vt 0.142857 0.214286
vt 0.214286 0.214286
vt 0.285714 0.214286
vt 0.357143 0.214286
vt 0.428571 0.214286
vt 0.500000 0.214286
vt 0.571429 0.214286
vt 0.642857 0.214286
vt 0.714286 0.214286
vt 0.785714 0.214286
vt 0.857143 0.214286
vt 0.928572 0.214286
vt 1.000000 0.214286
vt 0.000000 0.285714
vt 0.071429 0.285714
vt 0.142857 0.285714
vt 0.214286 0.285714
vt 0.285714 0.285714
vt 0.357143 0.285714
vt 0.428571 0.285714
vt 0.500000 0.285714
vt 0.571429 0.285714
vt 0.642857 0.285714
vt 0.714286 0.285714
vt 0.785714 0.285714
vt 0.857143 0.285714
vt 0.928572 0.285714
vt 1.000000 0.285714
vt 0.000000 0.357143
vt 0.071429 0.357143
vt 0.142857 0.357143
vt 0.214286 0.357143
vt 0.285714 0.357143
vt 0.357143 0.357143
vt 0.428571 0.357143
vt 0.500000 0.357143
vt 0.571429 0.357143
vt 0.642857 0.357143
vt 0.714286 0.357143
vt 0.785714 0.357143
vt 0.857143 0.357143
vt 0.928572 0.357143
vt 1.000000 0.357143
vt 0.000000 0.428571
vt 0.071429 0.428571
vt 0.142857 0.428571
vt 0.214286 0.428571
vt 0.285714 0.428571
vt 0.357143 0.428571
vt 0.428571 0.428571
vt 0.500000 0.428571
vt 0.571429 0.428571
vt 0.642857 0.428571
vt 0.714286 0.428571
vt 0.785714 0.428571
vt 0.857143 0.428571
vt 0.928572 0.428571
vt 1.000000 0.428571
vt 0.000000 0.500000
vt 0.071429 0.500000
vt 0.142857 0.500000
vt 0.214286 0.500000
vt 0.285714 0.500000
vt 0.357143 0.500000
vt 0.428571 0.500000
vt 0.500000 0.500000
vt 0.571429 0.500000
vt 0.642857 0.500000
vt 0.714286 0.500000
vt 0.785714 0.500000
vt 0.857143 0.500000
vt 0.928572 0.500000
vt 1.000000 0.500000
vt 0.000000 0.571429
vt 0.071429 0.571429
vt 0.142857 0.571429
vt 0.214286 0.571429
vt 0.285714 0.571429
vt 0.357143 0.571429
vt 0.428571 0.571429
vt 0.500000 0.571429
vt 0.571429 0.571429
vt 0.642857 0.571429
vt 0.714286 0.571429
vt 0.785714 0.571429
vt 0.857143 0.571429
vt 0.928572 0.571429
vt 1.000000 0.571429
vt 0.000000 0.642857
vt 0.071429 0.642857
vt 0.142857 0.642857
vt 0.214286 0.642857
vt 0.285714 0.642857
vt 0.357143 0.642857
vt 0.428571 0.642857
vt 0.500000 0.642857
vt 0.571429 0.642857
vt 0.642857 0.642857
vt 0.714286 0.642857
vt 0.785714 0.642857
vt 0.857143 0.642857
vt 0.928572 0.642857
vt 1.000000 0.642857
vt 0.000000 0.714286
vt 0.071429 0.714286
vt 0.142857 0.714286
vt 0.214286 0.714286
vt 0.285714 0.714286
vt 0.357143 0.714286
vt 0.428571 0.714286
vt 0.500000 0.714286
vt 0.571429 0.714286
vt 0.642857 0.714286
vt 0.714286 0.714286
vt 0.785714 0.714286
vt 0.857143 0.714286
vt 0.928572 0.714286
vt 1.000000 0.714286
vt 0.000000 0.785714
vt 0.071429 0.785714
vt 0.142857 0.785714
vt 0.214286 0.785714
vt 0.285714 0.785714
vt 0.357143 0.785714
vt 0.428571 0.785714
vt 0.500000 0.785714
vt 0.571429 0.785714
vt 0.642857 0.785714
vt 0.714286 0.785714
vt 0.785714 0.785714
vt 0.857143 0.785714
vt 0.928572 0.785714
vt 1.000000 0.785714
vt 0.000000 0.857143
vt 0.071429 0.857143
vt 0.142857 0.857143
vt 0.214286 0.857143
vt 0.285714 0.857143
vt 0.357143 0.857143
vt 0.428571 0.857143
vt 0.500000 0.857143
vt 0.571429 0.857143
vt 0.642857 0.857143
vt 0.714286 0.857143
vt 0.785714 0.857143
vt 0.857143 0.857143
vt 0.928572 0.857143
vt 1.000000 0.857143
vt 0.000000 0.928572
vt 0.071429 0.928572
vt 0.142857 0.928572
vt 0.214286 0.928572
vt 0.285714 0.928572
vt 0.357143 0.928572
vt 0.428571 0.928572
vt 0.500000 0.928572
vt 0.571429 0.928572
vt 0.642857 0.928572
vt 0.714286 0.928572
vt 0.785714 0.928572
vt 0.857143 0.928572
vt 0.928572 0.928572
vt 1.000000 0.928572
vt 0.035714 0.000000
vt 0.107143 0.000000
vt 0.178571 0.000000
vt 0.250000 0.000000
vt 0.321429 0.000000
vt 0.392857 0.000000
vt 0.464286 0.000000
vt 0.535714 0.000000
vt 0.607143 0.000000
vt 0.678571 0.000000
vt 0.750000 0.000000
vt 0.821429 0.000000
vt 0.892857 0.000000
vt 0.964286 0.000000
vt 0.035714 1.000000
vt 0.107143 1.000000
vt 0.178571 1.000000
vt 0.250000 1.000000
vt 0.321429 1.000000
vt 0.392857 1.000000
vt 0.464286 1.000000
vt 0.535714 1.000000
vt 0.607143 1.000000
vt 0.678571 1.000000
vt 0.750000 1.000000
vt 0.821429 1.000000
vt 0.892857 1.000000
vt 0.964286 1.000000
vt 0.000000 0.071429
vt 0.071429 0.071429
vt 0.071429 0.142857
vt 0.000000 0.142857
vt 0.142857 0.071429
vt 0.142857 0.142857
vt 0.214286 0.071429
vt 0.214286 0.142857
vt 0.285714 0.071429
vt 0.285714 0.142857
vt 0.357143 0.071429
vt 0.357143 0.142857
vt 0.428571 0.071429
vt 0.428571 0.142857
vt 0.500000 0.071429
vt 0.500000 0.142857
vt 0.571429 0.071429
vt 0.571429 0.142857
vt 0.642857 0.071429
vt 0.642857 0.142857
vt 0.714286 0.071429
vt 0.714286 0.142857
vt 0.785714 0.071429
vt 0.785714 0.142857
vt 0.857143 0.071429
vt 0.857143 0.142857
vt 0.928572 0.071429
vt 0.928572 0.142857
vt 1.000000 0.071429
vt 1.000000 0.142857
vt 0.071429 0.214286
vt 0.000000 0.214286
vt 0.142857 0.214286
vt 0.214286 0.214286
vt 0.285714 0.214286
vt 0.357143 0.214286
vt 0.428571 0.214286
vt 0.500000 0.214286
vt 0.571429 0.214286
vt 0.642857 0.214286
vt 0.714286 0.214286
vt 0.785714 0.214286
vt 0.857143 0.214286
vt 0.928572 0.214286
vt 1.000000 0.214286
vt 0.071429 0.285714
vt 0.000000 0.285714
vt 0.142857 0.285714
vt 0.214286 0.285714
vt 0.285714 0.285714
vt 0.357143 0.285714
vt 0.428571 0.285714
vt 0.500000 0.285714
vt 0.571429 0.285714
vt 0.642857 0.285714
vt 0.714286 0.285714
vt 0.785714 0.285714
vt 0.857143 0.285714
vt 0.928572 0.285714
vt 1.000000 0.285714
vt 0.071429 0.357143
vt 0.000000 0.357143
vt 0.142857 0.357143
vt 0.214286 0.357143
vt 0.285714 0.357143
vt 0.357143 0.357143
vt 0.428571 0.357143
vt 0.500000 0.357143
vt 0.571429 0.357143
vt 0.642857 0.357143
vt 0.714286 0.357143
vt 0.785714 0.357143
vt 0.857143 0.357143
vt 0.928572 0.357143
vt 1.000000 0.357143
vt 0.071429 0.428571
vt 0.000000 0.428571
vt 0.142857 0.428571
vt 0.214286 0.428571
vt 0.285714 0.428571
vt 0.357143 0.428571
vt 0.428571 0.428571
vt 0.500000 0.428571
vt 0.571429 0.428571
vt 0.642857 0.428571
vt 0.714286 0.428571
vt 0.785714 0.428571
vt 0.857143 0.428571
vt 0.928572 0.428571
vt 1.000000 0.428571
vt 0.071429 0.500000
vt 0.000000 0.500000
vt 0.142857 0.500000
vt 0.214286 0.500000
vt 0.285714 0.500000
vt 0.357143 0.500000
vt 0.428571 0.500000
vt 0.500000 0.500000
vt 0.571429 0.500000
vt 0.642857 0.500000
vt 0.714286 0.500000
vt 0.785714 0.500000
vt 0.857143 0.500000
vt 0.928572 0.500000
vt 1.000000 0.500000
vt 0.071429 0.571429
vt 0.000000 0.571429
vt 0.142857 0.571429
vt 0.214286 0.571429
vt 0.285714 0.571429
vt 0.357143 0.571429
vt 0.428571 0.571429
vt 0.500000 0.571429
vt 0.571429 0.571429
vt 0.642857 0.571429
vt 0.714286 0.571429
vt 0.785714 0.571429
vt 0.857143 0.571429
vt 0.928572 0.571429
vt 1.000000 0.571429
vt 0.071429 0.642857
vt 0.000000 0.642857
vt 0.142857 0.642857
vt 0.214286 0.642857
vt 0.285714 0.642857
vt 0.357143 0.642857
vt 0.428571 0.642857
vt 0.500000 0.642857
vt 0.571429 0.642857
vt 0.642857 0.642857
vt 0.714286 0.642857
vt 0.785714 0.642857
vt 0.857143 0.642857
vt 0.928572 0.642857
vt 1.000000 0.642857
vt 0.071429 0.714286
vt 0.000000 0.714286
vt 0.142857 0.714286
vt 0.214286 0.714286
vt 0.285714 0.714286
vt 0.357143 0.714286
vt 0.428571 0.714286
vt 0.500000 0.714286
vt 0.571429 0.714286
vt 0.642857 0.714286
vt 0.714286 0.714286
vt 0.785714 0.714286
vt 0.857143 0.714286
vt 0.928572 0.714286
vt 1.000000 0.714286
vt 0.071429 0.785714
vt 0.000000 0.785714
vt 0.142857 0.785714
vt 0.214286 0.785714
vt 0.285714 0.785714
vt 0.357143 0.785714
vt 0.428571 0.785714
vt 0.500000 0.785714
vt 0.571429 0.785714
vt 0.642857 0.785714
vt 0.714286 0.785714
vt 0.785714 0.785714
vt 0.857143 0.785714
vt 0.928572 0.785714
vt 1.000000 0.785714
vt 0.071429 0.857143
vt 0.000000 0.857143
vt 0.142857 0.857143
vt 0.214286 0.857143
vt 0.285714 0.857143
vt 0.357143 0.857143
vt 0.428571 0.857143
vt 0.500000 0.857143
vt 0.571429 0.857143
vt 0.642857 0.857143
vt 0.714286 0.857143
vt 0.785714 0.857143
vt 0.857143 0.857143
vt 0.928572 0.857143
vt 1.000000 0.857143
vt 0.071429 0.928572
vt 0.000000 0.928572
vt 0.142857 0.928572
vt 0.214286 0.928572
vt 0.285714 0.928572
vt 0.357143 0.928572
vt 0.428571 0.928572
vt 0.500000 0.928572
vt 0.571429 0.928572
vt 0.642857 0.928572
vt 0.714286 0.928572
vt 0.785714 0.928572
vt 0.857143 0.928572
vt 0.928572 0.928572
vt 1.000000 0.928572
vt 0.035714 0.000000
vt 0.107143 0.000000
vt 0.178571 0.000000
vt 0.250000 0.000000
vt 0.321429 0.000000
vt 0.392857 0.000000
vt 0.464286 0.000000
vt 0.535714 0.000000
vt 0.607143 0.000000
vt 0.678571 0.000000
vt 0.750000 0.000000
vt 0.821429 0.000000
vt 0.892857 0.000000
vt 0.964286 0.000000
vt 0.035714 1.000000
vt 0.107143 1.000000
vt 0.178571 1.000000
vt 0.250000 1.000000
vt 0.321429 1.000000
vt 0.392857 1.000000
vt 0.464286 1.000000
vt 0.535714 1.000000
vt 0.607143 1.000000
vt 0.678571 1.000000
vt 0.750000 1.000000
vt 0.821429 1.000000
vt 0.892857 1.000000
vt 0.964286 1.000000
vn 0.258491 -0.957959 -0.124483
vn 0.178882 -0.957959 -0.224311
vn 0.292570 -0.883068 -0.366871
vn 0.422776 -0.883068 -0.203598
vn 0.063842 -0.957959 -0.279711
vn 0.104417 -0.883068 -0.457480
vn -0.063842 -0.957959 -0.279711
vn -0.104417 -0.883068 -0.457480
vn -0.178882 -0.957959 -0.224311
vn -0.292570 -0.883068 -0.366871
vn -0.258491 -0.957959 -0.124483
vn -0.422776 -0.883068 -0.203598
vn -0.286904 -0.957959 -0.000000
vn -0.469246 -0.883068 -0.000000
vn -0.258492 -0.957959 0.124483
vn -0.422776 -0.883068 0.203598
vn -0.178882 -0.957959 0.224310
vn -0.292570 -0.883068 0.366871
vn -0.063842 -0.957959 0.279711
vn -0.104417 -0.883068 0.457480
vn 0.063842 -0.957959 0.279711
vn 0.104417 -0.883068 0.457480
vn 0.178882 -0.957959 0.224310
vn 0.292570 -0.883068 0.366871
vn 0.258491 -0.957959 0.124483
vn 0.422776 -0.883068 0.203598
vn 0.286904 -0.957959 0.000000
vn 0.469245 -0.883068 -0.000000
vn 0.402263 -0.764031 -0.504422
vn 0.581287 -0.764031 -0.279933
vn 0.143566 -0.764031 -0.629004
vn -0.143566 -0.764031 -0.629004
vn -0.402263 -0.764031 -0.504422
vn -0.581287 -0.764031 -0.279933
vn -0.645180 -0.764031 -0.000000
vn -0.581287 -0.764031 0.279933
vn -0.402263 -0.764031 0.504422
vn -0.143566 -0.764031 0.629004
vn 0.143566 -0.764031 0.629004
vn 0.402263 -0.764031 0.504422
vn 0.581287 -0.764031 0.279933
vn 0.645180 -0.764031 -0.000000
vn 0.495145 -0.607722 -0.620891
vn 0.715504 -0.607722 -0.344569
vn 0.176715 -0.607722 -0.774239
vn -0.176715 -0.607722 -0.774239
vn -0.495144 -0.607722 -0.620891
vn -0.715504 -0.607722 -0.344569
vn -0.794150 -0.607722 -0.000000
vn -0.715504 -0.607722 0.344569
vn -0.495144 -0.607722 0.620891
vn -0.176715 -0.607722 0.774239
vn 0.176715 -0.607722 0.774239
vn 0.495144 -0.607722 0.620891
vn 0.715504 -0.607722 0.344569
vn 0.794150 -0.607722 0.000000
vn 0.565231 -0.422077 -0.708777
vn 0.816782 -0.422077 -0.393342
vn 0.201729 -0.422077 -0.883831
vn -0.201728 -0.422077 -0.883831
vn -0.565231 -0.422077 -0.708777
vn -0.816782 -0.422077 -0.393342
vn -0.906560 -0.422077 -0.000000
vn -0.816782 -0.422077 0.393342
vn -0.565231 -0.422077 0.708777
vn -0.201729 -0.422077 0.883831
vn 0.201729 -0.422077 0.883831
vn 0.565231 -0.422077 0.708777
vn 0.816782 -0.422077 0.393342
vn 0.906560 -0.422077 0.000000
vn 0.608744 -0.216199 -0.763341
vn 0.879660 -0.216199 -0.423622
vn 0.217258 -0.216199 -0.951870
vn -0.217258 -0.216199 -0.951870
vn -0.608744 -0.216199 -0.763341
vn -0.879660 -0.216199 -0.423622
vn -0.976349 -0.216199 -0.000000
vn -0.879660 -0.216199 0.423622
vn -0.608744 -0.216199 0.763341
vn -0.217258 -0.216198 0.951870
vn 0.217258 -0.216199 0.951870
vn 0.608744 -0.216199 0.763341
vn 0.879660 -0.216199 0.423622
vn 0.976349 -0.216199 0.000000
vn 0.623490 -0.000000 -0.781831
vn 0.900969 -0.000000 -0.433884
vn 0.222521 0.000000 -0.974928
vn -0.222521 0.000000 -0.974928
vn -0.623489 0.000000 -0.781832
vn -0.900969 -0.000000 -0.433884
vn -1.000000 0.000000 -0.000000
vn -0.900969 0.000000 0.433883
vn -0.623490 0.000000 0.781831
vn -0.222521 -0.000000 0.974928
vn 0.222521 -0.000000 0.974928
vn 0.623489 -0.000000 0.781832
vn 0.900969 -0.000000 0.433884
vn 1.000000 -0.000000 0.000000
vn 0.608744 0.216199 -0.763340
vn 0.879660 0.216199 -0.423622
vn 0.217258 0.216199 -0.951870
vn -0.217258 0.216199 -0.951870
vn -0.608744 0.216199 -0.763341
vn -0.879660 0.216199 -0.423622
vn -0.976349 0.216199 -0.000000
vn -0.879660 0.216199 0.423622
vn -0.608744 0.216199 0.763341
vn -0.217258 0.216199 0.951870
vn 0.217258 0.216199 0.951870
vn 0.608744 0.216199 0.763341
vn 0.879660 0.216199 0.423622
vn 0.976349 0.216199 0.000000
vn 0.565231 0.422077 -0.708777
vn 0.816782 0.422077 -0.393342
vn 0.201729 0.422077 -0.883831
vn -0.201728 0.422077 -0.883831
vn -0.565231 0.422077 -0.708777
vn -0.816782 0.422077 -0.393342
vn -0.906560 0.422077 -0.000000
vn -0.816782 0.422077 0.393342
vn -0.565231 0.422077 0.708777
vn -0.201729 0.422077 0.883831
vn 0.201729 0.422077 0.883831
vn 0.565231 0.422077 0.708777
vn 0.816782 0.422077 0.393342
vn 0.906560 0.422077 0.000000
vn 0.495145 0.607722 -0.620891
vn 0.715504 0.607722 -0.344569
vn 0.176715 0.607722 -0.774239
vn -0.176715 0.607722 -0.774239
vn -0.495144 0.607722 -0.620891
vn -0.715504 0.607722 -0.344569
vn -0.794150 0.607722 -0.000000
vn -0.715504 0.607722 0.344569
vn -0.495145 0.607722 0.620891
vn -0.176715 0.607722 0.774239
vn 0.176715 0.607722 0.774239
vn 0.495144 0.607722 0.620892
vn 0.715504 0.607722 0.344569
vn 0.794150 0.607722 0.000000
vn 0.402263 0.764032 -0.504421
vn 0.581286 0.764032 -0.279933
vn 0.143566 0.764032 -0.629003
vn -0.143566 0.764032 -0.629003
vn -0.402262 0.764032 -0.504421
vn -0.581286 0.764032 -0.279933
vn -0.645179 0.764032 -0.000000
vn -0.581286 0.764032 0.279932
vn -0.402263 0.764032 0.504421
vn -0.143566 0.764032 0.629003
vn 0.143566 0.764031 0.629003
vn 0.402262 0.764032 0.504421
vn 0.581286 0.764032 0.279933
vn 0.645179 0.764032 0.000000
vn 0.292569 0.883068 -0.366870
vn 0.422775 0.883068 -0.203598
vn 0.104417 0.883068 -0.457480
vn -0.104417 0.883068 -0.457480
vn -0.292569 0.883068 -0.366870
vn -0.422775 0.883068 -0.203598
vn -0.469245 0.883068 -0.000000
vn -0.422775 0.883068 0.203597
vn -0.292569 0.883068 0.366870
vn -0.104417 0.883068 0.457479
vn 0.104417 0.883068 0.457480
vn 0.292569 0.883068 0.366870
vn 0.422775 0.883068 0.203598
vn 0.469245 0.883068 -0.000000
vn 0.178884 0.957958 -0.224313
vn 0.258494 0.957958 -0.124484
vn 0.063843 0.957958 -0.279714
vn -0.063843 0.957958 -0.279714
vn -0.178884 0.957958 -0.224313
vn -0.258494 0.957958 -0.124484
vn -0.286907 0.957958 -0.000000
vn -0.258494 0.957958 0.124484
vn -0.178884 0.957958 0.224313
vn -0.063843 0.957958 0.279714
vn 0.063843 0.957958 0.279714
vn 0.178883 0.957958 0.224313
vn 0.258494 0.957958 0.124484
vn 0.286907 0.957958 -0.000000
vn 0.000000 -1.000000 -0.000000
vn -0.000000 1.000000 -0.000000
vn 0.258492 -0.957959 0.124483
vn 0.422776 -0.883068 0.203598
vn 0.292570 -0.883068 0.366871
vn 0.178882 -0.957959 0.224311
vn 0.104417 -0.883068 0.457480
vn 0.063842 -0.957959 0.279711
vn -0.104417 -0.883068 0.457480
vn -0.063842 -0.957959 0.279711
vn -0.292570 -0.883068 0.366871
vn -0.178882 -0.957959 0.224310
vn -0.422776 -0.883068 0.203598
vn -0.258492 -0.957959 0.124483
vn -0.469245 -0.883068 0.000000
vn -0.286904 -0.957959 0.000000
vn -0.422776 -0.883068 -0.203598
vn -0.258491 -0.957959 -0.124483
vn -0.292570 -0.883068 -0.366871
vn -0.178882 -0.957959 -0.224310
vn -0.104417 -0.883068 -0.457480
vn -0.063842 -0.957959 -0.279711
vn 0.104417 -0.883068 -0.457480
vn 0.063842 -0.957959 -0.279711
vn 0.292570 -0.883068 -0.366871
vn 0.178882 -0.957959 -0.224311
vn 0.422775 -0.883068 -0.203598
vn 0.258491 -0.957959 -0.124482
vn 0.469245 -0.883068 0.000000
vn 0.286904 -0.957959 -0.000000
vn 0.581287 -0.764031 0.279933
vn 0.402263 -0.764031 0.504422
vn 0.143566 -0.764031 0.629004
vn -0.143566 -0.764031 0.629004
vn -0.402263 -0.764031 0.504422
vn -0.581287 -0.764031 0.279933
vn -0.645180 -0.764031 0.000000
vn -0.581287 -0.764031 -0.279933
vn -0.402263 -0.764031 -0.504422
vn -0.143566 -0.764031 -0.629004
vn 0.143566 -0.764031 -0.629004
vn 0.402263 -0.764031 -0.504422
vn 0.581287 -0.764031 -0.279933
vn 0.645180 -0.764031 -0.000000
vn 0.715504 -0.607722 0.344569
vn 0.495145 -0.607722 0.620891
vn 0.176715 -0.607722 0.774239
vn -0.176715 -0.607722 0.774239
vn -0.495144 -0.607722 0.620891
vn -0.715504 -0.607722 0.344569
vn -0.794150 -0.607722 0.000000
vn -0.715504 -0.607722 -0.344569
vn -0.495144 -0.607722 -0.620891
vn -0.176715 -0.607722 -0.774239
vn 0.176715 -0.607722 -0.774239
vn 0.495144 -0.607722 -0.620891
vn 0.715504 -0.607722 -0.344569
vn 0.794150 -0.607722 -0.000000
vn 0.816782 -0.422077 0.393342
vn 0.565231 -0.422077 0.708777
vn 0.201729 -0.422077 0.883831
vn -0.201729 -0.422077 0.883831
vn -0.565231 -0.422077 0.708777
vn -0.816782 -0.422077 0.393342
vn -0.906560 -0.422077 0.000000
vn -0.816782 -0.422077 -0.393342
vn -0.565231 -0.422077 -0.708777
vn -0.201729 -0.422077 -0.883830
vn 0.201729 -0.422077 -0.883830
vn 0.565231 -0.422077 -0.708777
vn 0.816782 -0.422077 -0.393342
vn 0.906560 -0.422077 -0.000000
vn 0.879660 -0.216199 0.423622
vn 0.608744 -0.216199 0.763340
vn 0.217258 -0.216199 0.951870
vn -0.217258 -0.216199 0.951870
vn -0.608744 -0.216199 0.763341
vn -0.879660 -0.216199 0.423622
vn -0.976349 -0.216199 0.000000
vn -0.879660 -0.216199 -0.423622
vn -0.608744 -0.216199 -0.763340
vn -0.217259 -0.216199 -0.951870
vn 0.217258 -0.216199 -0.951870
vn 0.608744 -0.216199 -0.763340
vn 0.879660 -0.216199 -0.423622
vn 0.976349 -0.216199 -0.000000
vn 0.900969 0.000000 0.433884
vn 0.623490 0.000000 0.781831
vn 0.222521 -0.000000 0.974928
vn -0.222521 0.000000 0.974928
vn -0.623489 0.000000 0.781832
vn -0.900969 -0.000000 0.433884
vn -1.000000 -0.000000 0.000000
vn -0.900969 -0.000000 -0.433884
vn -0.623490 -0.000000 -0.781831
vn -0.222521 -0.000000 -0.974928
vn 0.222521 -0.000000 -0.974928
vn 0.623490 0.000000 -0.781832
vn 0.900969 -0.000000 -0.433884
vn 1.000000 -0.000000 -0.000000
vn 0.879660 0.216199 0.423622
vn 0.608744 0.216199 0.763341
vn 0.217258 0.216199 0.951870
vn -0.217258 0.216199 0.951870
vn -0.608744 0.216199 0.763341
vn -0.879660 0.216199 0.423622
vn -0.976349 0.216199 0.000000
vn -0.879660 0.216199 -0.423622
vn -0.608744 0.216199 -0.763341
vn -0.217259 0.216199 -0.951870
vn 0.217258 0.216199 -0.951870
vn 0.608744 0.216199 -0.763341
vn 0.879660 0.216199 -0.423622
vn 0.976349 0.216199 -0.000000
vn 0.816782 0.422077 0.393342
vn 0.565231 0.422077 0.708777
vn 0.201729 0.422077 0.883831
vn -0.201729 0.422077 0.883831
vn -0.565231 0.422077 0.708777
vn -0.816782 0.422077 0.393342
vn -0.906560 0.422077 0.000000
vn -0.816782 0.422077 -0.393342
vn -0.565231 0.422077 -0.708777
vn -0.201729 0.422077 -0.883830
vn 0.201729 0.422077 -0.883831
vn 0.565231 0.422077 -0.708777
vn 0.816782 0.422077 -0.393342
vn 0.906560 0.422077 -0.000000
vn 0.715504 0.607722 0.344569
vn 0.495145 0.607722 0.620891
vn 0.176715 0.607722 0.774239
vn -0.176715 0.607722 0.774239
vn -0.495144 0.607722 0.620891
vn -0.715504 0.607722 0.344569
vn -0.794150 0.607722 0.000000
vn -0.715504 0.607722 -0.344569
vn -0.495144 0.607722 -0.620891
vn -0.176715 0.607722 -0.774239
vn 0.176715 0.607722 -0.774239
vn 0.495144 0.607722 -0.620891
vn 0.715504 0.607722 -0.344569
vn 0.794150 0.607722 -0.000000
vn 0.581286 0.764032 0.279933
vn 0.402263 0.764032 0.504421
vn 0.143566 0.764032 0.629003
vn -0.143566 0.764032 0.629003
vn -0.402263 0.764032 0.504421
vn -0.581286 0.764032 0.279933
vn -0.645179 0.764032 0.000000
vn -0.581286 0.764032 -0.279932
vn -0.402262 0.764032 -0.504421
vn -0.143565 0.764032 -0.629003
vn 0.143566 0.764032 -0.629003
vn 0.402262 0.764032 -0.504421
vn 0.581286 0.764032 -0.279933
vn 0.645179 0.764032 -0.000000
vn 0.422775 0.883068 0.203598
vn 0.292569 0.883068 0.366870
vn 0.104417 0.883068 0.457480
vn -0.104417 0.883068 0.457480
vn -0.292569 0.883068 0.366870
vn -0.422775 0.883068 0.203598
vn -0.469245 0.883068 0.000000
vn -0.422775 0.883068 -0.203598
vn -0.292570 0.883068 -0.366870
vn -0.104417 0.883068 -0.457480
vn 0.104417 0.883068 -0.457480
vn 0.292569 0.883068 -0.366871
vn 0.422775 0.883068 -0.203598
vn 0.469245 0.883068 0.000000
vn 0.258494 0.957959 0.124484
vn 0.178883 0.957958 0.224313
vn 0.063843 0.957958 0.279714
vn -0.063843 0.957958 0.279714
vn -0.178884 0.957958 0.224313
vn -0.258494 0.957959 0.124484
vn -0.286907 0.957959 0.000000
vn -0.258494 0.957958 -0.124484
vn -0.178884 0.957958 -0.224313
vn -0.063843 0.957958 -0.279714
vn 0.063843 0.957958 -0.279714
vn 0.178883 0.957958 -0.224313
vn 0.258494 0.957959 -0.124484
vn 0.286907 0.957958 -0.000000
vn -0.000000 -1.000000 0.000000
vn -0.000000 1.000000 -0.000000
s 1
g curvy2:pSphere2
usemtl initialShadingGroup
f 185/224/185 186/225/186 200/240/187 199/239/188
f 186/225/186 187/226/189 201/241/190 200/240/187
f 187/226/189 188/227/191 202/242/192 201/241/190
f 188/227/191 189/228/193 203/243/194 202/242/192
f 189/228/193 190/229/195 204/244/196 203/243/194
f 190/229/195 191/230/197 205/245/198 204/244/196
f 191/230/197 192/231/199 206/246/200 205/245/198
f 192/231/199 193/232/201 207/247/202 206/246/200
f 193/232/201 194/233/203 208/248/204 207/247/202
f 194/233/203 195/234/205 209/249/206 208/248/204
f 195/234/205 196/235/207 210/250/208 209/249/206
f 196/235/207 197/236/209 211/251/210 210/250/208
f 197/236/209 198/237/211 212/252/212 211/251/210
f 198/237/211 185/238/185 199/253/188 212/252/212
f 199/239/188 200/240/187 214/255/213 213/254/214
f 200/240/187 201/241/190 215/256/215 214/255/213
f 201/241/190 202/242/192 216/257/216 215/256/215
f 202/242/192 203/243/194 217/258/217 216/257/216
f 203/243/194 204/244/196 218/259/218 217/258/217
f 204/244/196 205/245/198 219/260/219 218/259/218
f 205/245/198 206/246/200 220/261/220 219/260/219
f 206/246/200 207/247/202 221/262/221 220/261/220
f 207/247/202 208/248/204 222/263/222 221/262/221
f 208/248/204 209/249/206 223/264/223 222/263/222
f 209/249/206 210/250/208 224/265/224 223/264/223
f 210/250/208 211/251/210 225/266/225 224/265/224
f 211/251/210 212/252/212 226/267/226 225/266/225
f 212/252/212 199/253/188 213/268/214 226/267/226
f 213/254/214 214/255/213 228/270/227 227/269/228
f 214/255/213 215/256/215 229/271/229 228/270/227
f 215/256/215 216/257/216 230/272/230 229/271/229
f 216/257/216 217/258/217 231/273/231 230/272/230
f 217/258/217 218/259/218 232/274/232 231/273/231
f 218/259/218 219/260/219 233/275/233 232/274/232
f 219/260/219 220/261/220 234/276/234 233/275/233
f 220/261/220 221/262/221 235/277/235 234/276/234
f 221/262/221 222/263/222 236/278/236 235/277/235
f 222/263/222 223/264/223 237/279/237 236/278/236
f 223/264/223 224/265/224 238/280/238 237/279/237
f 224/265/224 225/266/225 239/281/239 238/280/238
f 225/266/225 226/267/226 240/282/240 239/281/239
f 226/267/226 213/268/214 227/283/228 240/282/240
f 227/269/228 228/270/227 242/285/241 241/284/242
f 228/270/227 229/271/229 243/286/243 242/285/241
f 229/271/229 230/272/230 244/287/244 243/286/243
f 230/272/230 231/273/231 245/288/245 244/287/244
f 231/273/231 232/274/232 246/289/246 245/288/245
f 232/274/232 233/275/233 247/290/247 246/289/246
f 233/275/233 234/276/234 248/291/248 247/290/247
f 234/276/234 235/277/235 249/292/249 248/291/248
f 235/277/235 236/278/236 250/293/250 249/292/249
f 236/278/236 237/279/237 251/294/251 250/293/250
f 237/279/237 238/280/238 252/295/252 251/294/251
f 238/280/238 239/281/239 253/296/253 252/295/252
f 239/281/239 240/282/240 254/297/254 253/296/253
f 240/282/240 227/283/228 241/298/242 254/297/254
f 241/284/242 242/285/241 256/300/255 255/299/256
f 242/285/241 243/286/243 257/301/257 256/300/255
f 243/286/243 244/287/244 258/302/258 257/301/257
f 244/287/244 245/288/245 259/303/259 258/302/258
f 245/288/245 246/289/246 260/304/260 259/303/259
f 246/289/246 247/290/247 261/305/261 260/304/260
f 247/290/247 248/291/248 262/306/262 261/305/261
f 248/291/248 249/292/249 263/307/263 262/306/262
f 249/292/249 250/293/250 264/308/264 263/307/263
f 250/293/250 251/294/251 265/309/265 264/308/264
f 251/294/251 252/295/252 266/310/266 265/309/265
f 252/295/252 253/296/253 267/311/267 266/310/266
f 253/296/253 254/297/254 268/312/268 267/311/267
f 254/297/254 241/298/242 255/313/256 268/312/268
f 255/299/256 256/300/255 270/315/269 269/314/270
f 256/300/255 257/301/257 271/316/271 270/315/269
f 257/301/257 258/302/258 272/317/272 271/316/271
f 258/302/258 259/303/259 273/318/273 272/317/272
f 259/303/259 260/304/260 274/319/274 273/318/273
f 260/304/260 261/305/261 275/320/275 274/319/274
f 261/305/261 262/306/262 276/321/276 275/320/275
f 262/306/262 263/307/263 277/322/277 276/321/276
f 263/307/263 264/308/264 278/323/278 277/322/277
f 264/308/264 265/309/265 279/324/279 278/323/278
f 265/309/265 266/310/266 280/325/280 279/324/279
f 266/310/266 267/311/267 281/326/281 280/325/280
f 267/311/267 268/312/268 282/327/282 281/326/281
f 268/312/268 255/313/256 269/328/270 282/327/282
f 269/314/270 270/315/269 284/330/283 283/329/284
f 270/315/269 271/316/271 285/331/285 284/330/283
f 271/316/271 272/317/272 286/332/286 285/331/285
f 272/317/272 273/318/273 287/333/287 286/332/286
f 273/318/273 274/319/274 288/334/288 287/333/287
f 274/319/274 275/320/275 289/335/289 288/334/288
f 275/320/275 276/321/276 290/336/290 289/335/289
f 276/321/276 277/322/277 291/337/291 290/336/290
f 277/322/277 278/323/278 292/338/292 291/337/291
f 278/323/278 279/324/279 293/339/293 292/338/292
f 279/324/279 280/325/280 294/340/294 293/339/293
f 280/325/280 281/326/281 295/341/295 294/340/294
f 281/326/281 282/327/282 296/342/296 295/341/295
f 282/327/282 269/328/270 283/343/284 296/342/296
f 283/329/284 284/330/283 298/345/297 297/344/298
f 284/330/283 285/331/285 299/346/299 298/345/297
f 285/331/285 286/332/286 300/347/300 299/346/299
f 286/332/286 287/333/287 301/348/301 300/347/300
f 287/333/287 288/334/288 302/349/302 301/348/301
f 288/334/288 289/335/289 303/350/303 302/349/302
f 289/335/289 290/336/290 304/351/304 303/350/303
f 290/336/290 291/337/291 305/352/305 304/351/304
f 291/337/291 292/338/292 306/353/306 305/352/305
f 292/338/292 293/339/293 307/354/307 306/353/306
f 293/339/293 294/340/294 308/355/308 307/354/307
f 294/340/294 295/341/295 309/356/309 308/355/308
f 295/341/295 296/342/296 310/357/310 309/356/309
f 296/342/296 283/343/284 297/358/298 310/357/310
f 297/344/298 298/345/297 312/360/311 311/359/312
f 298/345/297 299/346/299 313/361/313 312/360/311
f 299/346/299 300/347/300 314/362/314 313/361/313
f 300/347/300 301/348/301 315/363/315 314/362/314
f 301/348/301 302/349/302 316/364/316 315/363/315
f 302/349/302 303/350/303 317/365/317 316/364/316
f 303/350/303 304/351/304 318/366/318 317/365/317
f 304/351/304 305/352/305 319/367/319 318/366/318
f 305/352/305 306/353/306 320/368/320 319/367/319
f 306/353/306 307/354/307 321/369/321 320/368/320
f 307/354/307 308/355/308 322/370/322 321/369/321
f 308/355/308 309/356/309 323/371/323 322/370/322
f 309/356/309 310/357/310 324/372/324 323/371/323
f 310/357/310 297/358/298 311/373/312 324/372/324
f 311/359/312 312/360/311 326/375/325 325/374/326
f 312/360/311 313/361/313 327/376/327 326/375/325
f 313/361/313 314/362/314 328/377/328 327/376/327
f 314/362/314 315/363/315 329/378/329 328/377/328
f 315/363/315 316/364/316 330/379/330 329/378/329
f 316/364/316 317/365/317 331/380/331 330/379/330
f 317/365/317 318/366/318 332/381/332 331/380/331
f 318/366/318 319/367/319 333/382/333 332/381/332
f 319/367/319 320/368/320 334/383/334 333/382/333
f 320/368/320 321/369/321 335/384/335 334/383/334
f 321/369/321 322/370/322 336/385/336 335/384/335
f 322/370/322 323/371/323 337/386/337 336/385/336
f 323/371/323 324/372/324 338/387/338 337/386/337
f 324/372/324 311/373/312 325/388/326 338/387/338
f 325/374/326 326/375/325 340/390/339 339/389/340
f 326/375/325 327/376/327 341/391/341 340/390/339
f 327/376/327 328/377/328 342/392/342 341/391/341
f 328/377/328 329/378/329 343/393/343 342/392/342
f 329/378/329 330/379/330 344/394/344 343/393/343
f 330/379/330 331/380/331 345/395/345 344/394/344
f 331/380/331 332/381/332 346/396/346 345/395/345
f 332/381/332 333/382/333 347/397/347 346/396/346
f 333/382/333 334/383/334 348/398/348 347/397/347
f 334/383/334 335/384/335 349/399/349 348/398/348
f 335/384/335 336/385/336 350/400/350 349/399/349
f 336/385/336 337/386/337 351/401/351 350/400/350
f 337/386/337 338/387/338 352/402/352 351/401/351
f 338/387/338 325/388/326 339/403/340 352/402/352
f 339/389/340 340/390/339 354/405/353 353/404/354
f 340/390/339 341/391/341 355/406/355 354/405/353
f 341/391/341 342/392/342 356/407/356 355/406/355
f 342/392/342 343/393/343 357/408/357 356/407/356
f 343/393/343 344/394/344 358/409/358 357/408/357
f 344/394/344 345/395/345 359/410/359 358/409/358
f 345/395/345 346/396/346 360/411/360 359/410/359
f 346/396/346 347/397/347 361/412/361 360/411/360
f 347/397/347 348/398/348 362/413/362 361/412/361
f 348/398/348 349/399/349 363/414/363 362/413/362
f 349/399/349 350/400/350 364/415/364 363/414/363
f 350/400/350 351/401/351 365/416/365 364/415/364
f 351/401/351 352/402/352 366/417/366 365/416/365
f 352/402/352 339/403/340 353/418/354 366/417/366
f 186/225/186 185/224/185 367/419/367
f 187/226/189 186/225/186 367/420/367
f 188/227/191 187/226/189 367/421/367
f 189/228/193 188/227/191 367/422/367
f 190/229/195 189/228/193 367/423/367
f 191/230/197 190/229/195 367/424/367
f 192/231/199 191/230/197 367/425/367
f 193/232/201 192/231/199 367/426/367
f 194/233/203 193/232/201 367/427/367
f 195/234/205 194/233/203 367/428/367
f 196/235/207 195/234/205 367/429/367
f 197/236/209 196/235/207 367/430/367
f 198/237/211 197/236/209 367/431/367
f 185/238/185 198/237/211 367/432/367
f 353/404/354 354/405/353 368/433/368
f 354/405/353 355/406/355 368/434/368
f 355/406/355 356/407/356 368/435/368
f 356/407/356 357/408/357 368/436/368
f 357/408/357 358/409/358 368/437/368
f 358/409/358 359/410/359 368/438/368
f 359/410/359 360/411/360 368/439/368
f 360/411/360 361/412/361 368/440/368
f 361/412/361 362/413/362 368/441/368
f 362/413/362 363/414/363 368/442/368
f 363/414/363 364/415/364 368/443/368
f 364/415/364 365/416/365 368/444/368
f 365/416/365 366/417/366 368/445/368
f 366/417/366 353/418/354 368/446/368
s 2
f 369/447/369 383/450/370 384/449/371 370/448/372
f 370/448/372 384/449/371 385/452/373 371/451/374
f 371/451/374 385/452/373 386/454/375 372/453/376
f 372/453/376 386/454/375 387/456/377 373/455/378
f 373/455/378 387/456/377 388/458/379 374/457/380
f 374/457/380 388/458/379 389/460/381 375/459/382
f 375/459/382 389/460/381 390/462/383 376/461/384
f 376/461/384 390/462/383 391/464/385 377/463/386
f 377/463/386 391/464/385 392/466/387 378/465/388
f 378/465/388 392/466/387 393/468/389 379/467/390
f 379/467/390 393/468/389 394/470/391 380/469/392
f 380/469/392 394/470/391 395/472/393 381/471/394
f 381/471/394 395/472/393 396/474/395 382/473/396
f 382/473/396 396/474/395 383/476/370 369/475/369
f 383/450/370 397/478/397 398/477/398 384/449/371
f 384/449/371 398/477/398 399/479/399 385/452/373
f 385/452/373 399/479/399 400/480/400 386/454/375
f 386/454/375 400/480/400 401/481/401 387/456/377
f 387/456/377 401/481/401 402/482/402 388/458/379
f 388/458/379 402/482/402 403/483/403 389/460/381
f 389/460/381 403/483/403 404/484/404 390/462/383
f 390/462/383 404/484/404 405/485/405 391/464/385
f 391/464/385 405/485/405 406/486/406 392/466/387
f 392/466/387 406/486/406 407/487/407 393/468/389
f 393/468/389 407/487/407 408/488/408 394/470/391
f 394/470/391 408/488/408 409/489/409 395/472/393
f 395/472/393 409/489/409 410/490/410 396/474/395
f 396/474/395 410/490/410 397/491/397 383/476/370
f 397/478/397 411/493/411 412/492/412 398/477/398
f 398/477/398 412/492/412 413/494/413 399/479/399
f 399/479/399 413/494/413 414/495/414 400/480/400
f 400/480/400 414/495/414 415/496/415 401/481/401
f 401/481/401 415/496/415 416/497/416 402/482/402
f 402/482/402 416/497/416 417/498/417 403/483/403
f 403/483/403 417/498/417 418/499/418 404/484/404
f 404/484/404 418/499/418 419/500/419 405/485/405
f 405/485/405 419/500/419 420/501/420 406/486/406
f 406/486/406 420/501/420 421/502/421 407/487/407
f 407/487/407 421/502/421 422/503/422 408/488/408
f 408/488/408 422/503/422 423/504/423 409/489/409
f 409/489/409 423/504/423 424/505/424 410/490/410
f 410/490/410 424/505/424 411/506/411 397/491/397
f 411/493/411 425/508/425 426/507/426 412/492/412
f 412/492/412 426/507/426 427/509/427 413/494/413
f 413/494/413 427/509/427 428/510/428 414/495/414
f 414/495/414 428/510/428 429/511/429 415/496/415
f 415/496/415 429/511/429 430/512/430 416/497/416
f 416/497/416 430/512/430 431/513/431 417/498/417
f 417/498/417 431/513/431 432/514/432 418/499/418
f 418/499/418 432/514/432 433/515/433 419/500/419
f 419/500/419 433/515/433 434/516/434 420/501/420
f 420/501/420 434/516/434 435/517/435 421/502/421
f 421/502/421 435/517/435 436/518/436 422/503/422
f 422/503/422 436/518/436 437/519/437 423/504/423
f 423/504/423 437/519/437 438/520/438 424/505/424
f 424/505/424 438/520/438 425/521/425 411/506/411
f 425/508/425 439/523/439 440/522/440 426/507/426
f 426/507/426 440/522/440 441/524/441 427/509/427
f 427/509/427 441/524/441 442/525/442 428/510/428
f 428/510/428 442/525/442 443/526/443 429/511/429
f 429/511/429 443/526/443 444/527/444 430/512/430
f 430/512/430 444/527/444 445/528/445 431/513/431
f 431/513/431 445/528/445 446/529/446 432/514/432
f 432/514/432 446/529/446 447/530/447 433/515/433
f 433/515/433 447/530/447 448/531/448 434/516/434
f 434/516/434 448/531/448 449/532/449 435/517/435
f 435/517/435 449/532/449 450/533/450 436/518/436
f 436/518/436 450/533/450 451/534/451 437/519/437
f 437/519/437 451/534/451 452/535/452 438/520/438
f 438/520/438 452/535/452 439/536/439 425/521/425
f 439/523/439 453/538/453 454/537/454 440/522/440
f 440/522/440 454/537/454 455/539/455 441/524/441
f 441/524/441 455/539/455 456/540/456 442/525/442
f 442/525/442 456/540/456 457/541/457 443/526/443
f 443/526/443 457/541/457 458/542/458 444/527/444
f 444/527/444 458/542/458 459/543/459 445/528/445
f 445/528/445 459/543/459 460/544/460 446/529/446
f 446/529/446 460/544/460 461/545/461 447/530/447
f 447/530/447 461/545/461 462/546/462 448/531/448
f 448/531/448 462/546/462 463/547/463 449/532/449
f 449/532/449 463/547/463 464/548/464 450/533/450
f 450/533/450 464/548/464 465/549/465 451/534/451
f 451/534/451 465/549/465 466/550/466 452/535/452
f 452/535/452 466/550/466 453/551/453 439/536/439
f 453/538/453 467/553/467 468/552/468 454/537/454
f 454/537/454 468/552/468 469/554/469 455/539/455
f 455/539/455 469/554/469 470/555/470 456/540/456
f 456/540/456 470/555/470 471/556/471 457/541/457
f 457/541/457 471/556/471 472/557/472 458/542/458
f 458/542/458 472/557/472 473/558/473 459/543/459
f 459/543/459 473/558/473 474/559/474 460/544/460
f 460/544/460 474/559/474 475/560/475 461/545/461
f 461/545/461 475/560/475 476/561/476 462/546/462
f 462/546/462 476/561/476 477/562/477 463/547/463
f 463/547/463 477/562/477 478/563/478 464/548/464
f 464/548/464 478/563/478 479/564/479 465/549/465
f 465/549/465 479/564/479 480/565/480 466/550/466
f 466/550/466 480/565/480 467/566/467 453/551/453
f 467/553/467 481/568/481 482/567/482 468/552/468
f 468/552/468 482/567/482 483/569/483 469/554/469
f 469/554/469 483/569/483 484/570/484 470/555/470
f 470/555/470 484/570/484 485/571/485 471/556/471
f 471/556/471 485/571/485 486/572/486 472/557/472
f 472/557/472 486/572/486 487/573/487 473/558/473
f 473/558/473 487/573/487 488/574/488 474/559/474
f 474/559/474 488/574/488 489/575/489 475/560/475
f 475/560/475 489/575/489 490/576/490 476/561/476
f 476/561/476 490/576/490 491/577/491 477/562/477
f 477/562/477 491/577/491 492/578/492 478/563/478
f 478/563/478 492/578/492 493/579/493 479/564/479
f 479/564/479 493/579/493 494/580/494 480/565/480
f 480/565/480 494/580/494 481/581/481 467/566/467
f 481/568/481 495/583/495 496/582/496 482/567/482
f 482/567/482 496/582/496 497/584/497 483/569/483
f 483/569/483 497/584/497 498/585/498 484/570/484
f 484/570/484 498/585/498 499/586/499 485/571/485
f 485/571/485 499/586/499 500/587/500 486/572/486
f 486/572/486 500/587/500 501/588/501 487/573/487
f 487/573/487 501/588/501 502/589/502 488/574/488
f 488/574/488 502/589/502 503/590/503 489/575/489
f 489/575/489 503/590/503 504/591/504 490/576/490
f 490/576/490 504/591/504 505/592/505 491/577/491
f 491/577/491 505/592/505 506/593/506 492/578/492
f 492/578/492 506/593/506 507/594/507 493/579/493
f 493/579/493 507/594/507 508/595/508 494/580/494
f 494/580/494 508/595/508 495/596/495 481/581/481
f 495/583/495 509/598/509 510/597/510 496/582/496
f 496/582/496 510/597/510 511/599/511 497/584/497
f 497/584/497 511/599/511 512/600/512 498/585/498
f 498/585/498 512/600/512 513/601/513 499/586/499
f 499/586/499 513/601/513 514/602/514 500/587/500
f 500/587/500 514/602/514 515/603/515 501/588/501
f 501/588/501 515/603/515 516/604/516 502/589/502
f 502/589/502 516/604/516 517/605/517 503/590/503
f 503/590/503 517/605/517 518/606/518 504/591/504
f 504/591/504 518/606/518 519/607/519 505/592/505
f 505/592/505 519/607/519 520/608/520 506/593/506
f 506/593/506 520/608/520 521/609/521 507/594/507
f 507/594/507 521/609/521 522/610/522 508/595/508
f 508/595/508 522/610/522 509/611/509 495/596/495
f 509/598/509 523/613/523 524/612/524 510/597/510
f 510/597/510 524/612/524 525/614/525 511/599/511
f 511/599/511 525/614/525 526/615/526 512/600/512
f 512/600/512 526/615/526 527/616/527 513/601/513
f 513/601/513 527/616/527 528/617/528 514/602/514
f 514/602/514 528/617/528 529/618/529 515/603/515
f 515/603/515 529/618/529 530/619/530 516/604/516
f 516/604/516 530/619/530 531/620/531 517/605/517
f 517/605/517 531/620/531 532/621/532 518/606/518
f 518/606/518 532/621/532 533/622/533 519/607/519
f 519/607/519 533/622/533 534/623/534 520/608/520
f 520/608/520 534/623/534 535/624/535 521/609/521
f 521/609/521 535/624/535 536/625/536 522/610/522
f 522/610/522 536/625/536 523/626/523 509/611/509
f 523/613/523 537/628/537 538/627/538 524/612/524
f 524/612/524 538/627/538 539/629/539 525/614/525
f 525/614/525 539/629/539 540/630/540 526/615/526
f 526/615/526 540/630/540 541/631/541 527/616/527
f 527/616/527 541/631/541 542/632/542 528/617/528
f 528/617/528 542/632/542 543/633/543 529/618/529
f 529/618/529 543/633/543 544/634/544 530/619/530
f 530/619/530 544/634/544 545/635/545 531/620/531
f 531/620/531 545/635/545 546/636/546 532/621/532
f 532/621/532 546/636/546 547/637/547 533/622/533
f 533/622/533 547/637/547 548/638/548 534/623/534
f 534/623/534 548/638/548 549/639/549 535/624/535
f 535/624/535 549/639/549 550/640/550 536/625/536
f 536/625/536 550/640/550 537/641/537 523/626/523
f 370/448/372 551/642/551 369/447/369
f 371/451/374 551/643/551 370/448/372
f 372/453/376 551/644/551 371/451/374
f 373/455/378 551/645/551 372/453/376
f 374/457/380 551/646/551 373/455/378
f 375/459/382 551/647/551 374/457/380
f 376/461/384 551/648/551 375/459/382
f 377/463/386 551/649/551 376/461/384
f 378/465/388 551/650/551 377/463/386
f 379/467/390 551/651/551 378/465/388
f 380/469/392 551/652/551 379/467/390
f 381/471/394 551/653/551 380/469/392
f 382/473/396 551/654/551 381/471/394
f 369/475/369 551/655/551 382/473/396
f 537/628/537 552/656/552 538/627/538
f 538/627/538 552/657/552 539/629/539
f 539/629/539 552/658/552 540/630/540
f 540/630/540 552/659/552 541/631/541
f 541/631/541 552/660/552 542/632/542
f 542/632/542 552/661/552 543/633/543
f 543/633/543 552/662/552 544/634/544
f 544/634/544 552/663/552 545/635/545
f 545/635/545 552/664/552 546/636/546
f 546/636/546 552/665/552 547/637/547
f 547/637/547 552/666/552 548/638/548
f 548/638/548 552/667/552 549/639/549
f 549/639/549 552/668/552 550/640/550
f 550/640/550 552/669/552 537/641/537
