# This file uses centimeters as units for non-parametric coordinates.

mtllib octahedron.mtl
g default
v 0.000000 1.156327 0.000000
v -0.447582 0.261162 0.447582
v 0.447582 0.261162 0.447582
v -0.447582 0.261162 -0.447582
v 0.447582 0.261162 -0.447582
v 0.000000 -0.634002 0.000000
vt 0.500000 0.333333
vt 0.388104 0.034945
vt 0.611896 0.034945
vt 0.164313 0.034945
vt 0.388104 0.706318
vt 0.611896 0.706318
vt 0.835687 0.034945
vt 0.500000 0.333333
vt 0.611896 0.706318
vt 0.388104 0.706318
vt 0.388104 0.034945
vt 0.611896 0.034945
vt 0.835687 0.034945
vt 0.164313 0.034945
vn 0.000000 0.447214 -0.894427
vn 0.000000 0.447214 -0.894427
vn 0.000000 0.447214 -0.894427
vn 0.000000 0.447214 0.894427
vn 0.000000 0.447214 0.894427
vn 0.000000 0.447214 0.894427
vn 0.894427 0.447214 0.000000
vn 0.894427 0.447214 0.000000
vn 0.894427 0.447214 0.000000
vn -0.894427 0.447214 0.000000
vn -0.894427 0.447214 0.000000
vn -0.894427 0.447214 0.000000
vn 0.000000 -0.447214 -0.894427
vn 0.000000 -0.447214 -0.894427
vn 0.000000 -0.447214 -0.894427
vn 0.000000 -0.447214 0.894427
vn 0.000000 -0.447214 0.894427
vn 0.000000 -0.447214 0.894427
vn 0.894427 -0.447214 0.000000
vn 0.894427 -0.447214 0.000000
vn 0.894427 -0.447214 0.000000
vn -0.894427 -0.447214 0.000000
vn -0.894427 -0.447214 0.000000
vn -0.894427 -0.447214 0.000000
s off
g pCube1
usemtl initialShadingGroup
f 1/1/1 5/6/2 4/5/3
f 2/2/4 3/3/5 1/1/6
f 3/3/7 5/7/8 1/1/9
f 4/4/10 2/2/11 1/1/12
f 6/8/13 4/10/14 5/9/15
f 2/11/16 6/8/17 3/12/18
f 3/12/19 6/8/20 5/13/21
f 4/14/22 6/8/23 2/11/24
