# This file uses centimeters as units for non-parametric coordinates.

mtllib tetrahedron.mtl
g default
v -0.500000 -1.000000 -0.866026
v -0.500000 -1.000000 0.866025
v 1.000000 -1.000000 0.000000
v 0.000000 1.000000 -0.000000
v 0.000000 -1.000000 0.000000
vt 0.421875 0.020934
vt 0.421875 0.291566
vt 0.656250 0.156250
vt 0.375000 0.312500
vt 0.458333 0.312500
vt 0.541667 0.312500
vt 0.625000 0.312500
vt 0.500000 0.687500
vt 0.500000 0.156250
vn -0.970143 0.242536 -0.000000
vn -0.970143 0.242536 -0.000000
vn -0.970143 0.242536 -0.000000
vn 0.485071 0.242536 0.840168
vn 0.485071 0.242536 0.840168
vn 0.485071 0.242536 0.840168
vn 0.485071 0.242536 -0.840168
vn 0.485071 0.242536 -0.840168
vn 0.485071 0.242536 -0.840168
vn 0.000000 -1.000000 0.000000
vn 0.000000 -1.000000 0.000000
vn 0.000000 -1.000000 0.000000
vn 0.000000 -1.000000 0.000000
s off
g pCylinder1
usemtl initialShadingGroup
f 1/4/1 2/5/2 4/8/3
f 2/5/4 3/6/5 4/8/6
f 3/6/7 1/7/8 4/8/9
s 1
f 2/2/10 1/1/11 5/9/12
f 3/3/13 2/2/10 5/9/12
f 1/1/11 3/3/13 5/9/12
